{
  "accessors": [
    {
      "bufferView": 2,
      "componentType": 5126,
      "count": 2580,
      "max": [
        0.7427452802658081,
        0.6955702304840088,
        6.0920000076293945
      ],
      "min": [
        -0.5107966065406799,
        -0.6194595098495483,
        -5.544372081756592
      ],
      "type": "VEC3"
    },
    {
      "bufferView": 2,
      "byteOffset": 30960,
      "componentType": 5126,
      "count": 2580,
      "max": [
        0.9951847791671753,
        0.9951848387718201,
        1.0
      ],
      "min": [
        -0.9951847791671753,
        -0.9951847791671753,
        -1.0
      ],
      "type": "VEC3"
    },
    {
      "bufferView": 1,
      "componentType": 5126,
      "count": 2580,
      "max": [
        0.997153103351593,
        0.9870915412902832
      ],
      "min": [
        0.013546038419008255,
        0.00417398102581501
      ],
      "type": "VEC2"
    },
    {
      "bufferView": 1,
      "byteOffset": 20640,
      "componentType": 5126,
      "count": 2580,
      "max": [
        0.997153103351593,
        0.9870915412902832
      ],
      "min": [
        0.013546038419008255,
        0.00417398102581501
      ],
      "type": "VEC2"
    },
    {
      "bufferView": 0,
      "componentType": 5125,
      "count": 3894,
      "type": "SCALAR"
    }
  ],
  "asset": {
    "extras": {
      "author": "YamIyamAyam (https://sketchfab.com/YamIyamAyam)",
      "license": "CC-BY-4.0 (http://creativecommons.org/licenses/by/4.0/)",
      "source": "https://sketchfab.com/3d-models/torpedo-a-244s-f4fdc6d927ab49329f2e74141008a7d7",
      "title": "Torpedo A-244S"
    },
    "generator": "Sketchfab-15.36.0",
    "version": "2.0"
  },
  "bufferViews": [
    {
      "buffer": 0,
      "byteLength": 15576,
      "name": "floatBufferViews",
      "target": 34963
    },
    {
      "buffer": 0,
      "byteLength": 41280,
      "byteOffset": 15576,
      "byteStride": 8,
      "name": "floatBufferViews",
      "target": 34962
    },
    {
      "buffer": 0,
      "byteLength": 61920,
      "byteOffset": 56856,
      "byteStride": 12,
      "name": "floatBufferViews",
      "target": 34962
    }
  ],
  "buffers": [
    {
      "byteLength": 118776,
      "uri": "scene.bin"
    }
  ],
  "extensionsUsed": [
    "KHR_materials_unlit"
  ],
  "images": [
    {
      "uri": "textures/Material.002_baseColor.png"
    }
  ],
  "materials": [
    {
      "doubleSided": true,
      "extensions": {
        "KHR_materials_unlit": {}
      },
      "name": "Material.002",
      "pbrMetallicRoughness": {
        "baseColorTexture": {
          "index": 0
        },
        "metallicFactor": 0.0
      }
    }
  ],
  "meshes": [
    {
      "name": "Cylinder_Material.002_0",
      "primitives": [
        {
          "attributes": {
            "NORMAL": 1,
            "POSITION": 0,
            "TEXCOORD_0": 2,
            "TEXCOORD_1": 3
          },
          "indices": 4,
          "material": 0,
          "mode": 4
        }
      ]
    }
  ],
  "nodes": [
    {
      "children": [
        1
      ],
      "matrix": [
        1.0,
        0.0,
        0.0,
        0.0,
        0.0,
        2.220446049250313e-16,
        -1.0,
        0.0,
        0.0,
        1.0,
        2.220446049250313e-16,
        0.0,
        0.0,
        0.0,
        0.0,
        1.0
      ],
      "name": "Sketchfab_model"
    },
    {
      "children": [
        2
      ],
      "matrix": [
        0.009999999776482582,
        0.0,
        0.0,
        0.0,
        0.0,
        0.0,
        0.009999999776482582,
        0.0,
        0.0,
        -0.009999999776482582,
        0.0,
        0.0,
        0.0,
        0.0,
        0.0,
        1.0
      ],
      "name": "99d7c38a16554d8c9b81f4e688af7221.fbx"
    },
    {
      "children": [
        3,
        6,
        8
      ],
      "name": "RootNode"
    },
    {
      "children": [
        4
      ],
      "matrix": [
        -29.086477364379697,
        -5.518905590722295,
        -95.51711910171437,
        0.0,
        56.63932069164076,
        79.46722539115298,
        -21.839126361216156,
        0.0,
        77.11007920637729,
        -60.452475336912016,
        -19.988344364310564,
        0.0,
        407.6245422363281,
        590.38623046875,
        -100.54539489746094,
        1.0
      ],
      "name": "Light"
    },
    {
      "children": [
        5
      ],
      "matrix": [
        1.0,
        0.0,
        0.0,
        0.0,
        0.0,
        2.220446049250313e-16,
        1.0,
        0.0,
        0.0,
        -1.0,
        2.220446049250313e-16,
        0.0,
        0.0,
        0.0,
        0.0,
        1.0
      ],
      "name": "Object_4"
    },
    {
      "name": "Object_5"
    },
    {
      "children": [
        7
      ],
      "matrix": [
        -65.1558127516791,
        -44.52713915455176,
        -61.417049289096546,
        0.0,
        -32.401349332924404,
        89.53957282709818,
        -30.5420854760369,
        0.0,
        68.59207001076241,
        8.666908837178815e-06,
        -72.76761921184274,
        0.0,
        735.88916015625,
        495.8309326171875,
        692.5791015625,
        1.0
      ],
      "name": "Camera"
    },
    {
      "name": "Object_7"
    },
    {
      "children": [
        9
      ],
      "matrix": [
        -4.371138984105016e-06,
        99.99999999999973,
        -5.960463766996327e-06,
        0.0,
        1.6292068227841128e-05,
        -5.960463056453591e-06,
        -99.9999999999985,
        0.0,
        -99.99999999999858,
        -4.371139955550163e-06,
        -1.6292067961387602e-05,
        0.0,
        0.0,
        0.0,
        0.0,
        1.0
      ],
      "name": "Cylinder"
    },
    {
      "mesh": 0,
      "name": "Cylinder_Material.002_0"
    }
  ],
  "samplers": [
    {
      "magFilter": 9729,
      "minFilter": 9987,
      "wrapS": 10497,
      "wrapT": 10497
    }
  ],
  "scene": 0,
  "scenes": [
    {
      "name": "Sketchfab_Scene",
      "nodes": [
        0
      ]
    }
  ],
  "textures": [
    {
      "sampler": 0,
      "source": 0
    }
  ]
}
