{
  "accessors": [
    {
      "bufferView": 2,
      "componentType": 5126,
      "count": 820,
      "max": [
        0.09182749688625336,
        0.07042187452316284,
        0.015047499909996986
      ],
      "min": [
        -0.04215187579393387,
        -0.02232937514781952,
        -0.015030625276267529
      ],
      "type": "VEC3"
    },
    {
      "bufferView": 2,
      "byteOffset": 9840,
      "componentType": 5126,
      "count": 820,
      "max": [
        1.0,
        1.0,
        1.0
      ],
      "min": [
        -1.0,
        -1.0,
        -1.0
      ],
      "type": "VEC3"
    },
    {
      "bufferView": 1,
      "componentType": 5126,
      "count": 820,
      "max": [
        0.5322906374931335,
        0.5020812749862671
      ],
      "min": [
        0.0,
        0.0
      ],
      "type": "VEC2"
    },
    {
      "bufferView": 0,
      "componentType": 5125,
      "count": 1572,
      "type": "SCALAR"
    },
    {
      "bufferView": 2,
      "byteOffset": 19680,
      "componentType": 5126,
      "count": 128,
      "max": [
        0.0428481251001358,
        0.014401249587535858,
        0.03435312584042549
      ],
      "min": [
        -0.06315875053405762,
        -0.06798875331878662,
        -0.03439687564969063
      ],
      "type": "VEC3"
    },
    {
      "bufferView": 2,
      "byteOffset": 21216,
      "componentType": 5126,
      "count": 128,
      "max": [
        0.9891643524169922,
        0.9932126998901367,
        1.0
      ],
      "min": [
        -0.9861083030700684,
        -0.9932126998901367,
        -1.0
      ],
      "type": "VEC3"
    },
    {
      "bufferView": 1,
      "byteOffset": 6560,
      "componentType": 5126,
      "count": 128,
      "max": [
        0.65625,
        0.6875
      ],
      "min": [
        0.0,
        0.0
      ],
      "type": "VEC2"
    },
    {
      "bufferView": 0,
      "byteOffset": 6288,
      "componentType": 5125,
      "count": 204,
      "type": "SCALAR"
    },
    {
      "bufferView": 2,
      "byteOffset": 22752,
      "componentType": 5126,
      "count": 820,
      "max": [
        0.09182749688625336,
        0.07042187452316284,
        0.015047499909996986
      ],
      "min": [
        -0.04215187579393387,
        -0.02232937514781952,
        -0.015030625276267529
      ],
      "type": "VEC3"
    },
    {
      "bufferView": 2,
      "byteOffset": 32592,
      "componentType": 5126,
      "count": 820,
      "max": [
        1.0,
        1.0,
        1.0
      ],
      "min": [
        -1.0,
        -1.0,
        -1.0
      ],
      "type": "VEC3"
    },
    {
      "bufferView": 1,
      "byteOffset": 7584,
      "componentType": 5126,
      "count": 820,
      "max": [
        0.5322906374931335,
        0.5020812749862671
      ],
      "min": [
        0.0,
        0.0
      ],
      "type": "VEC2"
    },
    {
      "bufferView": 0,
      "byteOffset": 7104,
      "componentType": 5125,
      "count": 1572,
      "type": "SCALAR"
    },
    {
      "bufferView": 2,
      "byteOffset": 42432,
      "componentType": 5126,
      "count": 128,
      "max": [
        0.0428481251001358,
        0.014401249587535858,
        0.03435312584042549
      ],
      "min": [
        -0.06315875053405762,
        -0.06798875331878662,
        -0.03439687564969063
      ],
      "type": "VEC3"
    },
    {
      "bufferView": 2,
      "byteOffset": 43968,
      "componentType": 5126,
      "count": 128,
      "max": [
        0.9891643524169922,
        0.9932126998901367,
        1.0
      ],
      "min": [
        -0.9861083030700684,
        -0.9932126998901367,
        -1.0
      ],
      "type": "VEC3"
    },
    {
      "bufferView": 1,
      "byteOffset": 14144,
      "componentType": 5126,
      "count": 128,
      "max": [
        0.65625,
        0.6875
      ],
      "min": [
        0.0,
        0.0
      ],
      "type": "VEC2"
    },
    {
      "bufferView": 0,
      "byteOffset": 13392,
      "componentType": 5125,
      "count": 204,
      "type": "SCALAR"
    },
    {
      "bufferView": 2,
      "byteOffset": 45504,
      "componentType": 5126,
      "count": 820,
      "max": [
        0.08699312806129456,
        0.06339874863624573,
        0.014905625022947788
      ],
      "min": [
        -0.04698624834418297,
        -0.029353125020861626,
        -0.015172500163316727
      ],
      "type": "VEC3"
    },
    {
      "bufferView": 2,
      "byteOffset": 55344,
      "componentType": 5126,
      "count": 820,
      "max": [
        1.0,
        1.0,
        1.0
      ],
      "min": [
        -1.0,
        -1.0,
        -1.0
      ],
      "type": "VEC3"
    },
    {
      "bufferView": 1,
      "byteOffset": 15168,
      "componentType": 5126,
      "count": 820,
      "max": [
        0.5322906374931335,
        0.5020812749862671
      ],
      "min": [
        0.0,
        0.0
      ],
      "type": "VEC2"
    },
    {
      "bufferView": 0,
      "byteOffset": 14208,
      "componentType": 5125,
      "count": 1572,
      "type": "SCALAR"
    },
    {
      "bufferView": 2,
      "byteOffset": 65184,
      "componentType": 5126,
      "count": 128,
      "max": [
        0.1080000028014183,
        0.007377500180155039,
        0.03421124815940857
      ],
      "min": [
        0.001993125071749091,
        -0.07501249760389328,
        -0.03453874960541725
      ],
      "type": "VEC3"
    },
    {
      "bufferView": 2,
      "byteOffset": 66720,
      "componentType": 5126,
      "count": 128,
      "max": [
        0.9861025214195251,
        0.9932135939598083,
        1.0
      ],
      "min": [
        -0.9891626834869385,
        -0.9932120442390442,
        -1.0
      ],
      "type": "VEC3"
    },
    {
      "bufferView": 1,
      "byteOffset": 21728,
      "componentType": 5126,
      "count": 128,
      "max": [
        0.65625,
        0.6875
      ],
      "min": [
        0.0,
        0.0
      ],
      "type": "VEC2"
    },
    {
      "bufferView": 0,
      "byteOffset": 20496,
      "componentType": 5125,
      "count": 204,
      "type": "SCALAR"
    },
    {
      "bufferView": 2,
      "byteOffset": 68256,
      "componentType": 5126,
      "count": 820,
      "max": [
        0.04215187579393387,
        0.07042187452316284,
        0.015047499909996986
      ],
      "min": [
        -0.09182749688625336,
        -0.02232937514781952,
        -0.015030625276267529
      ],
      "type": "VEC3"
    },
    {
      "bufferView": 2,
      "byteOffset": 78096,
      "componentType": 5126,
      "count": 820,
      "max": [
        1.0,
        1.0,
        1.0
      ],
      "min": [
        -1.0,
        -1.0,
        -1.0
      ],
      "type": "VEC3"
    },
    {
      "bufferView": 1,
      "byteOffset": 22752,
      "componentType": 5126,
      "count": 820,
      "max": [
        0.5322906374931335,
        0.5020812749862671
      ],
      "min": [
        0.0,
        0.0
      ],
      "type": "VEC2"
    },
    {
      "bufferView": 0,
      "byteOffset": 21312,
      "componentType": 5125,
      "count": 1572,
      "type": "SCALAR"
    },
    {
      "bufferView": 2,
      "byteOffset": 87936,
      "componentType": 5126,
      "count": 128,
      "max": [
        0.06315875053405762,
        0.014401249587535858,
        0.03435312584042549
      ],
      "min": [
        -0.0428481251001358,
        -0.06798875331878662,
        -0.03439687564969063
      ],
      "type": "VEC3"
    },
    {
      "bufferView": 2,
      "byteOffset": 89472,
      "componentType": 5126,
      "count": 128,
      "max": [
        0.9861083030700684,
        0.9932126998901367,
        1.0
      ],
      "min": [
        -0.9891643524169922,
        -0.9932126998901367,
        -1.0
      ],
      "type": "VEC3"
    },
    {
      "bufferView": 1,
      "byteOffset": 29312,
      "componentType": 5126,
      "count": 128,
      "max": [
        0.65625,
        0.6875
      ],
      "min": [
        0.0,
        0.0
      ],
      "type": "VEC2"
    },
    {
      "bufferView": 0,
      "byteOffset": 27600,
      "componentType": 5125,
      "count": 204,
      "type": "SCALAR"
    },
    {
      "bufferView": 2,
      "byteOffset": 91008,
      "componentType": 5126,
      "count": 4294,
      "max": [
        0.03752187639474869,
        0.029640624299645424,
        0.026872500777244568
      ],
      "min": [
        -0.03747812658548355,
        -0.057859376072883606,
        -0.07312750071287155
      ],
      "type": "VEC3"
    },
    {
      "bufferView": 2,
      "byteOffset": 142536,
      "componentType": 5126,
      "count": 4294,
      "max": [
        1.0,
        1.0,
        1.0
      ],
      "min": [
        -1.0,
        -1.0,
        -1.0
      ],
      "type": "VEC3"
    },
    {
      "bufferView": 1,
      "byteOffset": 30336,
      "componentType": 5126,
      "count": 4294,
      "max": [
        0.8621405959129333,
        0.8479218482971191
      ],
      "min": [
        0.0,
        0.0
      ],
      "type": "VEC2"
    },
    {
      "bufferView": 0,
      "byteOffset": 28416,
      "componentType": 5125,
      "count": 8520,
      "type": "SCALAR"
    },
    {
      "bufferView": 2,
      "byteOffset": 194064,
      "componentType": 5126,
      "count": 4294,
      "max": [
        0.03747812658548355,
        0.029640624299645424,
        0.026872500777244568
      ],
      "min": [
        -0.03752187639474869,
        -0.057859376072883606,
        -0.07312750071287155
      ],
      "type": "VEC3"
    },
    {
      "bufferView": 2,
      "byteOffset": 245592,
      "componentType": 5126,
      "count": 4294,
      "max": [
        1.0,
        1.0,
        1.0
      ],
      "min": [
        -1.0,
        -1.0,
        -1.0
      ],
      "type": "VEC3"
    },
    {
      "bufferView": 1,
      "byteOffset": 64688,
      "componentType": 5126,
      "count": 4294,
      "max": [
        0.8621405959129333,
        0.8479218482971191
      ],
      "min": [
        0.0,
        0.0
      ],
      "type": "VEC2"
    },
    {
      "bufferView": 0,
      "byteOffset": 62496,
      "componentType": 5125,
      "count": 8520,
      "type": "SCALAR"
    },
    {
      "bufferView": 2,
      "byteOffset": 297120,
      "componentType": 5126,
      "count": 4294,
      "max": [
        0.03753312677145004,
        0.023996874690055847,
        0.07549624890089035
      ],
      "min": [
        -0.037466876208782196,
        -0.06350312381982803,
        -0.02450375072658062
      ],
      "type": "VEC3"
    },
    {
      "bufferView": 2,
      "byteOffset": 348648,
      "componentType": 5126,
      "count": 4294,
      "max": [
        1.0,
        1.0,
        1.0
      ],
      "min": [
        -1.0,
        -1.0,
        -1.0
      ],
      "type": "VEC3"
    },
    {
      "bufferView": 1,
      "byteOffset": 99040,
      "componentType": 5126,
      "count": 4294,
      "max": [
        0.8621405959129333,
        0.8479218482971191
      ],
      "min": [
        0.0,
        0.0
      ],
      "type": "VEC2"
    },
    {
      "bufferView": 0,
      "byteOffset": 96576,
      "componentType": 5125,
      "count": 8520,
      "type": "SCALAR"
    },
    {
      "bufferView": 2,
      "byteOffset": 400176,
      "componentType": 5126,
      "count": 1426,
      "max": [
        0.07187499850988388,
        0.07108999788761139,
        0.006832499988377094
      ],
      "min": [
        -0.07187499850988388,
        -0.00024687498807907104,
        -0.02178812585771084
      ],
      "type": "VEC3"
    },
    {
      "bufferView": 2,
      "byteOffset": 417288,
      "componentType": 5126,
      "count": 1426,
      "max": [
        1.0,
        1.0,
        1.0
      ],
      "min": [
        -1.0,
        -1.0,
        -1.0
      ],
      "type": "VEC3"
    },
    {
      "bufferView": 1,
      "byteOffset": 133392,
      "componentType": 5126,
      "count": 1426,
      "max": [
        0.9229156374931335,
        0.9375
      ],
      "min": [
        0.0,
        0.0
      ],
      "type": "VEC2"
    },
    {
      "bufferView": 0,
      "byteOffset": 130656,
      "componentType": 5125,
      "count": 2184,
      "type": "SCALAR"
    },
    {
      "bufferView": 2,
      "byteOffset": 434400,
      "componentType": 5126,
      "count": 10373,
      "max": [
        -1.020905613899231,
        0.13452187180519104,
        -0.24913625419139862
      ],
      "min": [
        -1.5346906185150146,
        -0.10851500183343887,
        -1.129178762435913
      ],
      "type": "VEC3"
    },
    {
      "bufferView": 2,
      "byteOffset": 558876,
      "componentType": 5126,
      "count": 10373,
      "max": [
        1.0,
        1.0,
        1.0
      ],
      "min": [
        -1.0,
        -1.0,
        -1.0
      ],
      "type": "VEC3"
    },
    {
      "bufferView": 1,
      "byteOffset": 144800,
      "componentType": 5126,
      "count": 10373,
      "max": [
        0.798828125,
        0.556640625
      ],
      "min": [
        0.001953125,
        0.0019531238358467817
      ],
      "type": "VEC2"
    },
    {
      "bufferView": 0,
      "byteOffset": 139392,
      "componentType": 5125,
      "count": 16047,
      "type": "SCALAR"
    },
    {
      "bufferView": 2,
      "byteOffset": 683352,
      "componentType": 5126,
      "count": 10373,
      "max": [
        -0.19660186767578125,
        0.13452187180519104,
        0.09915187209844589
      ],
      "min": [
        -0.7103868722915649,
        -0.10851500183343887,
        -0.7808899879455566
      ],
      "type": "VEC3"
    },
    {
      "bufferView": 2,
      "byteOffset": 807828,
      "componentType": 5126,
      "count": 10373,
      "max": [
        1.0,
        1.0,
        1.0
      ],
      "min": [
        -1.0,
        -1.0,
        -1.0
      ],
      "type": "VEC3"
    },
    {
      "bufferView": 1,
      "byteOffset": 227784,
      "componentType": 5126,
      "count": 10373,
      "max": [
        0.798828125,
        0.556640625
      ],
      "min": [
        0.001953125,
        0.0019531238358467817
      ],
      "type": "VEC2"
    },
    {
      "bufferView": 0,
      "byteOffset": 203580,
      "componentType": 5125,
      "count": 16047,
      "type": "SCALAR"
    },
    {
      "bufferView": 2,
      "byteOffset": 932304,
      "componentType": 5126,
      "count": 10377,
      "max": [
        0.7095956206321716,
        0.13452187180519104,
        0.6573799848556519
      ],
      "min": [
        0.19581063091754913,
        -0.10851500183343887,
        -0.22266249358654022
      ],
      "type": "VEC3"
    },
    {
      "bufferView": 2,
      "byteOffset": 1056828,
      "componentType": 5126,
      "count": 10377,
      "max": [
        1.0,
        1.0,
        1.0
      ],
      "min": [
        -1.0,
        -1.0,
        -1.0
      ],
      "type": "VEC3"
    },
    {
      "bufferView": 1,
      "byteOffset": 310768,
      "componentType": 5126,
      "count": 10377,
      "max": [
        0.798828125,
        0.556640625
      ],
      "min": [
        0.001953125,
        0.0019531238358467817
      ],
      "type": "VEC2"
    },
    {
      "bufferView": 0,
      "byteOffset": 267768,
      "componentType": 5125,
      "count": 16047,
      "type": "SCALAR"
    },
    {
      "bufferView": 2,
      "byteOffset": 1181352,
      "componentType": 5126,
      "count": 10368,
      "max": [
        1.5338994264602661,
        0.13452187180519104,
        1.0056681632995605
      ],
      "min": [
        1.0201144218444824,
        -0.10851500183343887,
        0.12562625110149384
      ],
      "type": "VEC3"
    },
    {
      "bufferView": 2,
      "byteOffset": 1305768,
      "componentType": 5126,
      "count": 10368,
      "max": [
        1.0,
        1.0,
        1.0
      ],
      "min": [
        -1.0,
        -1.0,
        -1.0
      ],
      "type": "VEC3"
    },
    {
      "bufferView": 1,
      "byteOffset": 393784,
      "componentType": 5126,
      "count": 10368,
      "max": [
        0.798828125,
        0.556640625
      ],
      "min": [
        0.001953125,
        0.0019531238358467817
      ],
      "type": "VEC2"
    },
    {
      "bufferView": 0,
      "byteOffset": 331956,
      "componentType": 5125,
      "count": 16047,
      "type": "SCALAR"
    },
    {
      "bufferView": 2,
      "byteOffset": 1430184,
      "componentType": 5126,
      "count": 10367,
      "max": [
        1.5338994264602661,
        0.13452187180519104,
        1.0056681632995605
      ],
      "min": [
        1.0201144218444824,
        -0.10851500183343887,
        0.12562625110149384
      ],
      "type": "VEC3"
    },
    {
      "bufferView": 2,
      "byteOffset": 1554588,
      "componentType": 5126,
      "count": 10367,
      "max": [
        1.0,
        1.0,
        1.0
      ],
      "min": [
        -1.0,
        -1.0,
        -1.0
      ],
      "type": "VEC3"
    },
    {
      "bufferView": 1,
      "byteOffset": 476728,
      "componentType": 5126,
      "count": 10367,
      "max": [
        0.798828125,
        0.556640625
      ],
      "min": [
        0.001953125,
        0.0019531238358467817
      ],
      "type": "VEC2"
    },
    {
      "bufferView": 0,
      "byteOffset": 396144,
      "componentType": 5125,
      "count": 16047,
      "type": "SCALAR"
    },
    {
      "bufferView": 2,
      "byteOffset": 1678992,
      "componentType": 5126,
      "count": 10620,
      "max": [
        0.08545587956905365,
        0.04684196785092354,
        0.295136034488678
      ],
      "min": [
        -0.18052132427692413,
        -0.6595014333724976,
        -0.5849058032035828
      ],
      "type": "VEC3"
    },
    {
      "bufferView": 2,
      "byteOffset": 1806432,
      "componentType": 5126,
      "count": 10620,
      "max": [
        0.9983341097831726,
        0.9998230934143066,
        1.0
      ],
      "min": [
        -0.9976122975349426,
        -1.0,
        -1.0
      ],
      "type": "VEC3"
    },
    {
      "bufferView": 1,
      "byteOffset": 559664,
      "componentType": 5126,
      "count": 10620,
      "max": [
        0.798828125,
        0.556640625
      ],
      "min": [
        0.001953125,
        0.0019531238358467817
      ],
      "type": "VEC2"
    },
    {
      "bufferView": 0,
      "byteOffset": 460332,
      "componentType": 5125,
      "count": 16047,
      "type": "SCALAR"
    },
    {
      "bufferView": 2,
      "byteOffset": 1933872,
      "componentType": 5126,
      "count": 10620,
      "max": [
        0.08545587956905365,
        0.04684196785092354,
        0.295136034488678
      ],
      "min": [
        -0.18052132427692413,
        -0.6595014333724976,
        -0.5849058032035828
      ],
      "type": "VEC3"
    },
    {
      "bufferView": 2,
      "byteOffset": 2061312,
      "componentType": 5126,
      "count": 10620,
      "max": [
        0.9983341097831726,
        0.9998230934143066,
        1.0
      ],
      "min": [
        -0.9976122975349426,
        -1.0,
        -1.0
      ],
      "type": "VEC3"
    },
    {
      "bufferView": 1,
      "byteOffset": 644624,
      "componentType": 5126,
      "count": 10620,
      "max": [
        0.798828125,
        0.556640625
      ],
      "min": [
        0.001953125,
        0.0019531238358467817
      ],
      "type": "VEC2"
    },
    {
      "bufferView": 0,
      "byteOffset": 524520,
      "componentType": 5125,
      "count": 16047,
      "type": "SCALAR"
    },
    {
      "bufferView": 2,
      "byteOffset": 2188752,
      "componentType": 5126,
      "count": 10373,
      "max": [
        0.7103868722915649,
        0.13452187180519104,
        0.09915187209844589
      ],
      "min": [
        0.19660186767578125,
        -0.10851500183343887,
        -0.7808899879455566
      ],
      "type": "VEC3"
    },
    {
      "bufferView": 2,
      "byteOffset": 2313228,
      "componentType": 5126,
      "count": 10373,
      "max": [
        1.0,
        1.0,
        1.0
      ],
      "min": [
        -1.0,
        -1.0,
        -1.0
      ],
      "type": "VEC3"
    },
    {
      "bufferView": 1,
      "byteOffset": 729584,
      "componentType": 5126,
      "count": 10373,
      "max": [
        0.798828125,
        0.556640625
      ],
      "min": [
        0.001953125,
        0.0019531238358467817
      ],
      "type": "VEC2"
    },
    {
      "bufferView": 0,
      "byteOffset": 588708,
      "componentType": 5125,
      "count": 16047,
      "type": "SCALAR"
    },
    {
      "bufferView": 2,
      "byteOffset": 2437704,
      "componentType": 5126,
      "count": 10373,
      "max": [
        0.7103868722915649,
        0.13452187180519104,
        0.09915187209844589
      ],
      "min": [
        0.19660186767578125,
        -0.10851500183343887,
        -0.7808899879455566
      ],
      "type": "VEC3"
    },
    {
      "bufferView": 2,
      "byteOffset": 2562180,
      "componentType": 5126,
      "count": 10373,
      "max": [
        1.0,
        1.0,
        1.0
      ],
      "min": [
        -1.0,
        -1.0,
        -1.0
      ],
      "type": "VEC3"
    },
    {
      "bufferView": 1,
      "byteOffset": 812568,
      "componentType": 5126,
      "count": 10373,
      "max": [
        0.798828125,
        0.556640625
      ],
      "min": [
        0.001953125,
        0.0019531238358467817
      ],
      "type": "VEC2"
    },
    {
      "bufferView": 0,
      "byteOffset": 652896,
      "componentType": 5125,
      "count": 16047,
      "type": "SCALAR"
    },
    {
      "bufferView": 2,
      "byteOffset": 2686656,
      "componentType": 5126,
      "count": 131,
      "max": [
        1.625,
        0.3296700119972229,
        8.881250381469727
      ],
      "min": [
        -1.6242793798446655,
        0.3125,
        -4.435094833374023
      ],
      "type": "VEC3"
    },
    {
      "bufferView": 2,
      "byteOffset": 2688228,
      "componentType": 5126,
      "count": 131,
      "max": [
        0.0,
        1.0,
        0.006458720657974482
      ],
      "min": [
        0.0,
        0.9999791383743286,
        0.0
      ],
      "type": "VEC3"
    },
    {
      "bufferView": 1,
      "byteOffset": 895552,
      "componentType": 5126,
      "count": 131,
      "max": [
        0.2530851662158966,
        0.7950845956802368
      ],
      "min": [
        1.9648437955765985e-05,
        0.0
      ],
      "type": "VEC2"
    },
    {
      "bufferView": 0,
      "byteOffset": 717084,
      "componentType": 5125,
      "count": 408,
      "type": "SCALAR"
    },
    {
      "bufferView": 2,
      "byteOffset": 2689800,
      "componentType": 5126,
      "count": 4622,
      "max": [
        1.6375000476837158,
        0.3125,
        8.242067337036133
      ],
      "min": [
        -1.6375000476837158,
        0.17499999701976776,
        0.34357750415802
      ],
      "type": "VEC3"
    },
    {
      "bufferView": 2,
      "byteOffset": 2745264,
      "componentType": 5126,
      "count": 4622,
      "max": [
        1.0,
        1.0,
        1.0
      ],
      "min": [
        -1.0,
        -1.0,
        -1.0
      ],
      "type": "VEC3"
    },
    {
      "bufferView": 1,
      "byteOffset": 896600,
      "componentType": 5126,
      "count": 4622,
      "max": [
        0.36982688307762146,
        0.5625
      ],
      "min": [
        0.005154374986886978,
        0.0
      ],
      "type": "VEC2"
    },
    {
      "bufferView": 0,
      "byteOffset": 718716,
      "componentType": 5125,
      "count": 10608,
      "type": "SCALAR"
    },
    {
      "bufferView": 2,
      "byteOffset": 2800728,
      "componentType": 5126,
      "count": 24,
      "max": [
        1.609375,
        1.568750023841858,
        3.8968749046325684
      ],
      "min": [
        1.171875,
        1.556249976158142,
        3.8531250953674316
      ],
      "type": "VEC3"
    },
    {
      "bufferView": 2,
      "byteOffset": 2801016,
      "componentType": 5126,
      "count": 24,
      "max": [
        1.0,
        1.0,
        1.0
      ],
      "min": [
        -1.0,
        -1.0,
        -1.0
      ],
      "type": "VEC3"
    },
    {
      "bufferView": 1,
      "byteOffset": 933576,
      "componentType": 5126,
      "count": 24,
      "max": [
        0.3125,
        0.3125
      ],
      "min": [
        0.0,
        0.0
      ],
      "type": "VEC2"
    },
    {
      "bufferView": 0,
      "byteOffset": 761148,
      "componentType": 5125,
      "count": 36,
      "type": "SCALAR"
    },
    {
      "bufferView": 2,
      "byteOffset": 2801304,
      "componentType": 5126,
      "count": 1216,
      "max": [
        1.6745038032531738,
        1.748437523841858,
        9.022838592529297
      ],
      "min": [
        -1.1636543273925781,
        -0.11874999850988388,
        -1.2698556184768677
      ],
      "type": "VEC3"
    },
    {
      "bufferView": 2,
      "byteOffset": 2815896,
      "componentType": 5126,
      "count": 1216,
      "max": [
        1.0,
        0.0,
        1.0
      ],
      "min": [
        -1.0,
        0.0,
        -1.0
      ],
      "type": "VEC3"
    },
    {
      "bufferView": 1,
      "byteOffset": 933768,
      "componentType": 5126,
      "count": 1216,
      "max": [
        1.0,
        0.5
      ],
      "min": [
        0.0,
        0.0
      ],
      "type": "VEC2"
    },
    {
      "bufferView": 0,
      "byteOffset": 761292,
      "componentType": 5125,
      "count": 1824,
      "type": "SCALAR"
    },
    {
      "bufferView": 2,
      "byteOffset": 2830488,
      "componentType": 5126,
      "count": 3740,
      "max": [
        1.625,
        0.3296875059604645,
        8.992431640625
      ],
      "min": [
        -1.599765658378601,
        0.3108718693256378,
        -4.167702674865723
      ],
      "type": "VEC3"
    },
    {
      "bufferView": 2,
      "byteOffset": 2875368,
      "componentType": 5126,
      "count": 3740,
      "max": [
        1.0,
        1.0,
        1.0
      ],
      "min": [
        -1.0,
        -1.0,
        -1.0
      ],
      "type": "VEC3"
    },
    {
      "bufferView": 1,
      "byteOffset": 943496,
      "componentType": 5126,
      "count": 3740,
      "max": [
        0.7765166163444519,
        0.71484375
      ],
      "min": [
        0.0,
        0.0
      ],
      "type": "VEC2"
    },
    {
      "bufferView": 0,
      "byteOffset": 768588,
      "componentType": 5125,
      "count": 6678,
      "type": "SCALAR"
    },
    {
      "bufferView": 2,
      "byteOffset": 2920248,
      "componentType": 5126,
      "count": 1468,
      "max": [
        1.625,
        0.3296700119972229,
        9.006250381469727
      ],
      "min": [
        -1.6242793798446655,
        -0.625,
        -4.435094833374023
      ],
      "type": "VEC3"
    },
    {
      "bufferView": 2,
      "byteOffset": 2937864,
      "componentType": 5126,
      "count": 1468,
      "max": [
        1.0,
        1.0,
        1.0
      ],
      "min": [
        -1.0,
        -1.0,
        -1.0
      ],
      "type": "VEC3"
    },
    {
      "bufferView": 1,
      "byteOffset": 973416,
      "componentType": 5126,
      "count": 1468,
      "max": [
        0.6380628943443298,
        0.5625
      ],
      "min": [
        0.0,
        0.0
      ],
      "type": "VEC2"
    },
    {
      "bufferView": 0,
      "byteOffset": 795300,
      "componentType": 5125,
      "count": 3039,
      "type": "SCALAR"
    },
    {
      "bufferView": 2,
      "byteOffset": 2955480,
      "componentType": 5126,
      "count": 1347,
      "max": [
        1.59375,
        1.0492862462997437,
        5.474999904632568
      ],
      "min": [
        0.90625,
        0.25,
        3.46875
      ],
      "type": "VEC3"
    },
    {
      "bufferView": 2,
      "byteOffset": 2971644,
      "componentType": 5126,
      "count": 1347,
      "max": [
        1.0,
        1.0,
        1.0
      ],
      "min": [
        -1.0,
        -1.0,
        -1.0
      ],
      "type": "VEC3"
    },
    {
      "bufferView": 1,
      "byteOffset": 985160,
      "componentType": 5126,
      "count": 1347,
      "max": [
        0.59375,
        0.5234375
      ],
      "min": [
        0.0,
        0.0
      ],
      "type": "VEC2"
    },
    {
      "bufferView": 0,
      "byteOffset": 807456,
      "componentType": 5125,
      "count": 3366,
      "type": "SCALAR"
    },
    {
      "bufferView": 2,
      "byteOffset": 2987808,
      "componentType": 5126,
      "count": 100,
      "max": [
        1.7064062356948853,
        1.0492862462997437,
        3.8895680904388428
      ],
      "min": [
        0.9121793508529663,
        0.6738512516021729,
        3.4730663299560547
      ],
      "type": "VEC3"
    },
    {
      "bufferView": 2,
      "byteOffset": 2989008,
      "componentType": 5126,
      "count": 100,
      "max": [
        0.9486833214759827,
        0.9999573230743408,
        0.9999909996986389
      ],
      "min": [
        -0.9486833214759827,
        -0.9980864524841309,
        -0.9890137910842896
      ],
      "type": "VEC3"
    },
    {
      "bufferView": 1,
      "byteOffset": 995936,
      "componentType": 5126,
      "count": 100,
      "max": [
        0.9213625192642212,
        0.9375
      ],
      "min": [
        0.005987499840557575,
        0.0
      ],
      "type": "VEC2"
    },
    {
      "bufferView": 0,
      "byteOffset": 820920,
      "componentType": 5125,
      "count": 150,
      "type": "SCALAR"
    },
    {
      "bufferView": 2,
      "byteOffset": 2990208,
      "componentType": 5126,
      "count": 2004,
      "max": [
        0.9375,
        0.20624999701976776,
        8.687579154968262
      ],
      "min": [
        -0.40045124292373657,
        -0.7014462351799011,
        -2.677468776702881
      ],
      "type": "VEC3"
    },
    {
      "bufferView": 2,
      "byteOffset": 3014256,
      "componentType": 5126,
      "count": 2004,
      "max": [
        1.0,
        1.0,
        1.0
      ],
      "min": [
        -1.0,
        -1.0,
        -1.0
      ],
      "type": "VEC3"
    },
    {
      "bufferView": 1,
      "byteOffset": 996736,
      "componentType": 5126,
      "count": 2004,
      "max": [
        0.54531329870224,
        0.5625
      ],
      "min": [
        0.0,
        0.0
      ],
      "type": "VEC2"
    },
    {
      "bufferView": 0,
      "byteOffset": 821520,
      "componentType": 5125,
      "count": 3156,
      "type": "SCALAR"
    },
    {
      "bufferView": 2,
      "byteOffset": 3038304,
      "componentType": 5126,
      "count": 1401,
      "max": [
        1.21875,
        0.27812498807907104,
        9.024999618530273
      ],
      "min": [
        -1.165624976158142,
        -0.38749998807907104,
        -1.3395280838012695
      ],
      "type": "VEC3"
    },
    {
      "bufferView": 2,
      "byteOffset": 3055116,
      "componentType": 5126,
      "count": 1401,
      "max": [
        1.0,
        1.0,
        1.0
      ],
      "min": [
        -1.0,
        -1.0,
        -1.0
      ],
      "type": "VEC3"
    },
    {
      "bufferView": 1,
      "byteOffset": 1012768,
      "componentType": 5126,
      "count": 1401,
      "max": [
        0.890625,
        0.7250000238418579
      ],
      "min": [
        0.0,
        0.0
      ],
      "type": "VEC2"
    },
    {
      "bufferView": 0,
      "byteOffset": 834144,
      "componentType": 5125,
      "count": 2910,
      "type": "SCALAR"
    },
    {
      "bufferView": 2,
      "byteOffset": 3071928,
      "componentType": 5126,
      "count": 4174,
      "max": [
        1.6737406253814697,
        1.8250000476837158,
        8.850000381469727
      ],
      "min": [
        -1.1437499523162842,
        -0.11562500149011612,
        3.5062499046325684
      ],
      "type": "VEC3"
    },
    {
      "bufferView": 2,
      "byteOffset": 3122016,
      "componentType": 5126,
      "count": 4174,
      "max": [
        1.0,
        1.0,
        1.0
      ],
      "min": [
        -1.0,
        -1.0,
        -1.0
      ],
      "type": "VEC3"
    },
    {
      "bufferView": 1,
      "byteOffset": 1023976,
      "componentType": 5126,
      "count": 4174,
      "max": [
        0.90625,
        0.90625
      ],
      "min": [
        0.0,
        0.0
      ],
      "type": "VEC2"
    },
    {
      "bufferView": 0,
      "byteOffset": 845784,
      "componentType": 5125,
      "count": 7728,
      "type": "SCALAR"
    },
    {
      "bufferView": 2,
      "byteOffset": 3172104,
      "componentType": 5126,
      "count": 24,
      "max": [
        0.12812499701976776,
        0.0015625000232830644,
        0.12187500298023224
      ],
      "min": [
        -0.12812499701976776,
        -0.0015625000232830644,
        0.0031250000465661287
      ],
      "type": "VEC3"
    },
    {
      "bufferView": 2,
      "byteOffset": 3172392,
      "componentType": 5126,
      "count": 24,
      "max": [
        1.0,
        1.0,
        1.0
      ],
      "min": [
        -1.0,
        -1.0,
        -1.0
      ],
      "type": "VEC3"
    },
    {
      "bufferView": 1,
      "byteOffset": 1057368,
      "componentType": 5126,
      "count": 24,
      "max": [
        0.16796875,
        0.08203125
      ],
      "min": [
        0.1015625,
        0.046875
      ],
      "type": "VEC2"
    },
    {
      "bufferView": 0,
      "byteOffset": 876696,
      "componentType": 5125,
      "count": 36,
      "type": "SCALAR"
    },
    {
      "bufferView": 2,
      "byteOffset": 3172680,
      "componentType": 5126,
      "count": 24,
      "max": [
        0.0031250000465661287,
        0.05156249925494194,
        0.00937500037252903
      ],
      "min": [
        -0.0031250000465661287,
        -0.05156249925494194,
        -0.00937500037252903
      ],
      "type": "VEC3"
    },
    {
      "bufferView": 2,
      "byteOffset": 3172968,
      "componentType": 5126,
      "count": 24,
      "max": [
        1.0,
        1.0,
        1.0
      ],
      "min": [
        -1.0,
        -1.0,
        -1.0
      ],
      "type": "VEC3"
    },
    {
      "bufferView": 1,
      "byteOffset": 1057560,
      "componentType": 5126,
      "count": 24,
      "max": [
        0.16796875,
        0.08203125
      ],
      "min": [
        0.1015625,
        0.046875
      ],
      "type": "VEC2"
    },
    {
      "bufferView": 0,
      "byteOffset": 876840,
      "componentType": 5125,
      "count": 36,
      "type": "SCALAR"
    },
    {
      "bufferView": 2,
      "byteOffset": 3173256,
      "componentType": 5126,
      "count": 24,
      "max": [
        0.0031250000465661287,
        0.05156249925494194,
        0.00937500037252903
      ],
      "min": [
        -0.0031250000465661287,
        -0.05156249925494194,
        -0.00937500037252903
      ],
      "type": "VEC3"
    },
    {
      "bufferView": 2,
      "byteOffset": 3173544,
      "componentType": 5126,
      "count": 24,
      "max": [
        1.0,
        1.0,
        1.0
      ],
      "min": [
        -1.0,
        -1.0,
        -1.0
      ],
      "type": "VEC3"
    },
    {
      "bufferView": 1,
      "byteOffset": 1057752,
      "componentType": 5126,
      "count": 24,
      "max": [
        0.16796875,
        0.08203125
      ],
      "min": [
        0.1015625,
        0.046875
      ],
      "type": "VEC2"
    },
    {
      "bufferView": 0,
      "byteOffset": 876984,
      "componentType": 5125,
      "count": 36,
      "type": "SCALAR"
    },
    {
      "bufferView": 2,
      "byteOffset": 3173832,
      "componentType": 5126,
      "count": 24,
      "max": [
        0.0031250000465661287,
        0.05156249925494194,
        0.00937500037252903
      ],
      "min": [
        -0.0031250000465661287,
        -0.05156249925494194,
        -0.00937500037252903
      ],
      "type": "VEC3"
    },
    {
      "bufferView": 2,
      "byteOffset": 3174120,
      "componentType": 5126,
      "count": 24,
      "max": [
        1.0,
        1.0,
        1.0
      ],
      "min": [
        -1.0,
        -1.0,
        -1.0
      ],
      "type": "VEC3"
    },
    {
      "bufferView": 1,
      "byteOffset": 1057944,
      "componentType": 5126,
      "count": 24,
      "max": [
        0.16796875,
        0.08203125
      ],
      "min": [
        0.1015625,
        0.046875
      ],
      "type": "VEC2"
    },
    {
      "bufferView": 0,
      "byteOffset": 877128,
      "componentType": 5125,
      "count": 36,
      "type": "SCALAR"
    },
    {
      "bufferView": 2,
      "byteOffset": 3174408,
      "componentType": 5126,
      "count": 24,
      "max": [
        0.0031250000465661287,
        0.05156249925494194,
        0.00937500037252903
      ],
      "min": [
        -0.0031250000465661287,
        -0.05156249925494194,
        -0.00937500037252903
      ],
      "type": "VEC3"
    },
    {
      "bufferView": 2,
      "byteOffset": 3174696,
      "componentType": 5126,
      "count": 24,
      "max": [
        1.0,
        1.0,
        1.0
      ],
      "min": [
        -1.0,
        -1.0,
        -1.0
      ],
      "type": "VEC3"
    },
    {
      "bufferView": 1,
      "byteOffset": 1058136,
      "componentType": 5126,
      "count": 24,
      "max": [
        0.16796875,
        0.08203125
      ],
      "min": [
        0.1015625,
        0.046875
      ],
      "type": "VEC2"
    },
    {
      "bufferView": 0,
      "byteOffset": 877272,
      "componentType": 5125,
      "count": 36,
      "type": "SCALAR"
    },
    {
      "bufferView": 2,
      "byteOffset": 3174984,
      "componentType": 5126,
      "count": 24,
      "max": [
        0.0031250000465661287,
        0.05156249925494194,
        0.00937500037252903
      ],
      "min": [
        -0.0031250000465661287,
        -0.05156249925494194,
        -0.00937500037252903
      ],
      "type": "VEC3"
    },
    {
      "bufferView": 2,
      "byteOffset": 3175272,
      "componentType": 5126,
      "count": 24,
      "max": [
        1.0,
        1.0,
        1.0
      ],
      "min": [
        -1.0,
        -1.0,
        -1.0
      ],
      "type": "VEC3"
    },
    {
      "bufferView": 1,
      "byteOffset": 1058328,
      "componentType": 5126,
      "count": 24,
      "max": [
        0.16796875,
        0.08203125
      ],
      "min": [
        0.1015625,
        0.046875
      ],
      "type": "VEC2"
    },
    {
      "bufferView": 0,
      "byteOffset": 877416,
      "componentType": 5125,
      "count": 36,
      "type": "SCALAR"
    },
    {
      "bufferView": 2,
      "byteOffset": 3175560,
      "componentType": 5126,
      "count": 74,
      "max": [
        0.012500000186264515,
        -0.08437500149011612,
        8.887499809265137
      ],
      "min": [
        -0.012500000186264515,
        -0.11562500149011612,
        8.862500190734863
      ],
      "type": "VEC3"
    },
    {
      "bufferView": 2,
      "byteOffset": 3176448,
      "componentType": 5126,
      "count": 74,
      "max": [
        1.0,
        1.0,
        1.0
      ],
      "min": [
        -1.0,
        -1.0,
        -1.0
      ],
      "type": "VEC3"
    },
    {
      "bufferView": 1,
      "byteOffset": 1058520,
      "componentType": 5126,
      "count": 74,
      "max": [
        0.8031250238418579,
        0.8125
      ],
      "min": [
        0.3231000006198883,
        0.3125
      ],
      "type": "VEC2"
    },
    {
      "bufferView": 0,
      "byteOffset": 877560,
      "componentType": 5125,
      "count": 144,
      "type": "SCALAR"
    },
    {
      "bufferView": 2,
      "byteOffset": 3177336,
      "componentType": 5126,
      "count": 74,
      "max": [
        0.012500000186264515,
        -0.08437500149011612,
        8.887499809265137
      ],
      "min": [
        -0.012500000186264515,
        -0.11562500149011612,
        8.862500190734863
      ],
      "type": "VEC3"
    },
    {
      "bufferView": 2,
      "byteOffset": 3178224,
      "componentType": 5126,
      "count": 74,
      "max": [
        1.0,
        1.0,
        1.0
      ],
      "min": [
        -1.0,
        -1.0,
        -1.0
      ],
      "type": "VEC3"
    },
    {
      "bufferView": 1,
      "byteOffset": 1059112,
      "componentType": 5126,
      "count": 74,
      "max": [
        0.8031250238418579,
        0.8125
      ],
      "min": [
        0.3231000006198883,
        0.3125
      ],
      "type": "VEC2"
    },
    {
      "bufferView": 0,
      "byteOffset": 878136,
      "componentType": 5125,
      "count": 144,
      "type": "SCALAR"
    },
    {
      "bufferView": 2,
      "byteOffset": 3179112,
      "componentType": 5126,
      "count": 74,
      "max": [
        0.012500000186264515,
        -0.08437500149011612,
        8.887499809265137
      ],
      "min": [
        -0.012500000186264515,
        -0.11562500149011612,
        8.862500190734863
      ],
      "type": "VEC3"
    },
    {
      "bufferView": 2,
      "byteOffset": 3180000,
      "componentType": 5126,
      "count": 74,
      "max": [
        1.0,
        1.0,
        1.0
      ],
      "min": [
        -1.0,
        -1.0,
        -1.0
      ],
      "type": "VEC3"
    },
    {
      "bufferView": 1,
      "byteOffset": 1059704,
      "componentType": 5126,
      "count": 74,
      "max": [
        0.8031250238418579,
        0.8125
      ],
      "min": [
        0.3231000006198883,
        0.3125
      ],
      "type": "VEC2"
    },
    {
      "bufferView": 0,
      "byteOffset": 878712,
      "componentType": 5125,
      "count": 144,
      "type": "SCALAR"
    },
    {
      "bufferView": 2,
      "byteOffset": 3180888,
      "componentType": 5126,
      "count": 74,
      "max": [
        0.012500000186264515,
        -0.08437500149011612,
        8.887499809265137
      ],
      "min": [
        -0.012500000186264515,
        -0.11562500149011612,
        8.862500190734863
      ],
      "type": "VEC3"
    },
    {
      "bufferView": 2,
      "byteOffset": 3181776,
      "componentType": 5126,
      "count": 74,
      "max": [
        1.0,
        1.0,
        1.0
      ],
      "min": [
        -1.0,
        -1.0,
        -1.0
      ],
      "type": "VEC3"
    },
    {
      "bufferView": 1,
      "byteOffset": 1060296,
      "componentType": 5126,
      "count": 74,
      "max": [
        0.8031250238418579,
        0.8125
      ],
      "min": [
        0.3231000006198883,
        0.3125
      ],
      "type": "VEC2"
    },
    {
      "bufferView": 0,
      "byteOffset": 879288,
      "componentType": 5125,
      "count": 144,
      "type": "SCALAR"
    },
    {
      "bufferView": 2,
      "byteOffset": 3182664,
      "componentType": 5126,
      "count": 4,
      "max": [
        0.5,
        0.0,
        0.5
      ],
      "min": [
        -0.5,
        0.0,
        -0.5
      ],
      "type": "VEC3"
    },
    {
      "bufferView": 2,
      "byteOffset": 3182712,
      "componentType": 5126,
      "count": 4,
      "max": [
        0.0,
        1.0,
        0.0
      ],
      "min": [
        0.0,
        1.0,
        0.0
      ],
      "type": "VEC3"
    },
    {
      "bufferView": 1,
      "byteOffset": 1060888,
      "componentType": 5126,
      "count": 4,
      "max": [
        1.0,
        1.0
      ],
      "min": [
        0.0,
        0.0
      ],
      "type": "VEC2"
    },
    {
      "bufferView": 0,
      "byteOffset": 879864,
      "componentType": 5125,
      "count": 6,
      "type": "SCALAR"
    },
    {
      "bufferView": 2,
      "byteOffset": 3182760,
      "componentType": 5126,
      "count": 4,
      "max": [
        0.4375,
        0.0,
        0.3125
      ],
      "min": [
        -0.4375,
        0.0,
        -0.3125
      ],
      "type": "VEC3"
    },
    {
      "bufferView": 2,
      "byteOffset": 3182808,
      "componentType": 5126,
      "count": 4,
      "max": [
        0.0,
        1.0,
        0.0
      ],
      "min": [
        0.0,
        1.0,
        0.0
      ],
      "type": "VEC3"
    },
    {
      "bufferView": 1,
      "byteOffset": 1060920,
      "componentType": 5126,
      "count": 4,
      "max": [
        1.0,
        1.0
      ],
      "min": [
        0.0,
        0.0
      ],
      "type": "VEC2"
    },
    {
      "bufferView": 0,
      "byteOffset": 879888,
      "componentType": 5125,
      "count": 6,
      "type": "SCALAR"
    },
    {
      "bufferView": 3,
      "componentType": 5126,
      "count": 4,
      "max": [
        2.0
      ],
      "min": [
        0.0
      ],
      "type": "SCALAR"
    },
    {
      "bufferView": 4,
      "componentType": 5126,
      "count": 4,
      "max": [
        0.0,
        0.9961947202682495,
        0.0,
        1.0
      ],
      "min": [
        0.0,
        -0.02181488461792469,
        0.0,
        -0.9997619986534119
      ],
      "type": "VEC4"
    }
  ],
  "animations": [
    {
      "channels": [
        {
          "sampler": 0,
          "target": {
            "node": 30,
            "path": "rotation"
          }
        }
      ],
      "name": "animation radar jimitz",
      "samplers": [
        {
          "input": 176,
          "interpolation": "LINEAR",
          "output": 177
        }
      ]
    }
  ],
  "asset": {
    "extras": {
      "author": "SIpriv (https://sketchfab.com/S1Priv)",
      "license": "CC-BY-4.0 (http://creativecommons.org/licenses/by/4.0/)",
      "source": "https://sketchfab.com/3d-models/low-poly-uss-nimitz-acc8e2ab9cff4f6aa41c7f6db5e59abb",
      "title": "Low-poly Uss nimitz"
    },
    "generator": "Sketchfab-17.14.0",
    "version": "2.0"
  },
  "bufferViews": [
    {
      "buffer": 0,
      "byteLength": 879912,
      "name": "floatBufferViews",
      "target": 34963
    },
    {
      "buffer": 0,
      "byteLength": 1060952,
      "byteOffset": 879912,
      "byteStride": 8,
      "name": "floatBufferViews",
      "target": 34962
    },
    {
      "buffer": 0,
      "byteLength": 3182856,
      "byteOffset": 1940864,
      "byteStride": 12,
      "name": "floatBufferViews",
      "target": 34962
    },
    {
      "buffer": 0,
      "byteLength": 16,
      "byteOffset": 5123720,
      "name": "floatBufferViews"
    },
    {
      "buffer": 0,
      "byteLength": 64,
      "byteOffset": 5123736,
      "byteStride": 16,
      "name": "floatBufferViews"
    }
  ],
  "buffers": [
    {
      "byteLength": 5123800,
      "uri": "scene.bin"
    }
  ],
  "images": [
    {
      "uri": "textures/material_0_baseColor.png"
    },
    {
      "uri": "textures/material_1_baseColor.png"
    },
    {
      "uri": "textures/material_2_baseColor.png"
    },
    {
      "uri": "textures/material_3_baseColor.png"
    },
    {
      "uri": "textures/material_8_baseColor.png"
    },
    {
      "uri": "textures/material_4_baseColor.png"
    },
    {
      "uri": "textures/material_9_baseColor.png"
    },
    {
      "uri": "textures/material_5_baseColor.png"
    },
    {
      "uri": "textures/material_10_baseColor.png"
    },
    {
      "uri": "textures/material_11_baseColor.png"
    },
    {
      "uri": "textures/material_12_baseColor.png"
    },
    {
      "uri": "textures/material_13_baseColor.png"
    },
    {
      "uri": "textures/material_7_baseColor.png"
    },
    {
      "uri": "textures/material_14_baseColor.png"
    },
    {
      "uri": "textures/material_15_baseColor.png"
    }
  ],
  "materials": [
    {
      "alphaCutoff": 0.05,
      "alphaMode": "MASK",
      "doubleSided": true,
      "name": "material_0",
      "pbrMetallicRoughness": {
        "baseColorTexture": {
          "index": 0
        },
        "metallicFactor": 0.0
      }
    },
    {
      "alphaCutoff": 0.05,
      "alphaMode": "MASK",
      "doubleSided": true,
      "name": "material_1",
      "pbrMetallicRoughness": {
        "baseColorTexture": {
          "index": 1
        },
        "metallicFactor": 0.0
      }
    },
    {
      "alphaCutoff": 0.05,
      "alphaMode": "MASK",
      "doubleSided": true,
      "name": "material_2",
      "pbrMetallicRoughness": {
        "baseColorTexture": {
          "index": 2
        },
        "metallicFactor": 0.0
      }
    },
    {
      "alphaCutoff": 0.05,
      "alphaMode": "MASK",
      "doubleSided": true,
      "name": "material_3",
      "pbrMetallicRoughness": {
        "baseColorTexture": {
          "index": 3
        },
        "metallicFactor": 0.0,
        "roughnessFactor": 0.2960659505954414
      }
    },
    {
      "alphaCutoff": 0.05,
      "alphaMode": "MASK",
      "doubleSided": true,
      "name": "material_8",
      "pbrMetallicRoughness": {
        "baseColorTexture": {
          "index": 4
        },
        "metallicFactor": 0.0
      }
    },
    {
      "alphaCutoff": 0.05,
      "alphaMode": "MASK",
      "doubleSided": true,
      "name": "material_4",
      "pbrMetallicRoughness": {
        "baseColorTexture": {
          "index": 5
        },
        "metallicFactor": 0.0,
        "roughnessFactor": 0.7999164226378549
      }
    },
    {
      "alphaCutoff": 0.05,
      "alphaMode": "MASK",
      "doubleSided": true,
      "name": "material_9",
      "pbrMetallicRoughness": {
        "baseColorTexture": {
          "index": 6
        },
        "metallicFactor": 0.0
      }
    },
    {
      "alphaCutoff": 0.05,
      "alphaMode": "MASK",
      "doubleSided": true,
      "name": "material_5",
      "pbrMetallicRoughness": {
        "baseColorTexture": {
          "index": 7
        },
        "metallicFactor": 0.0
      }
    },
    {
      "alphaCutoff": 0.05,
      "alphaMode": "MASK",
      "doubleSided": true,
      "name": "material_10",
      "pbrMetallicRoughness": {
        "baseColorTexture": {
          "index": 8
        },
        "metallicFactor": 0.0,
        "roughnessFactor": 0.36732561241228934
      }
    },
    {
      "alphaCutoff": 0.05,
      "alphaMode": "MASK",
      "doubleSided": true,
      "name": "material_11",
      "pbrMetallicRoughness": {
        "baseColorTexture": {
          "index": 9
        },
        "metallicFactor": 0.0,
        "roughnessFactor": 0.13173248074315735
      }
    },
    {
      "doubleSided": true,
      "name": "material_6",
      "pbrMetallicRoughness": {
        "metallicFactor": 0.0
      }
    },
    {
      "alphaCutoff": 0.05,
      "alphaMode": "MASK",
      "doubleSided": true,
      "name": "material_12",
      "pbrMetallicRoughness": {
        "baseColorTexture": {
          "index": 10
        },
        "metallicFactor": 0.0
      }
    },
    {
      "alphaCutoff": 0.05,
      "alphaMode": "MASK",
      "doubleSided": true,
      "name": "material_13",
      "pbrMetallicRoughness": {
        "baseColorTexture": {
          "index": 11
        },
        "metallicFactor": 0.0
      }
    },
    {
      "alphaCutoff": 0.05,
      "alphaMode": "MASK",
      "doubleSided": true,
      "name": "material_7",
      "pbrMetallicRoughness": {
        "baseColorTexture": {
          "index": 12
        },
        "metallicFactor": 0.0
      }
    },
    {
      "alphaCutoff": 0.05,
      "alphaMode": "MASK",
      "doubleSided": true,
      "name": "material_14",
      "pbrMetallicRoughness": {
        "baseColorTexture": {
          "index": 13
        },
        "metallicFactor": 0.0
      }
    },
    {
      "alphaCutoff": 0.05,
      "alphaMode": "MASK",
      "doubleSided": true,
      "name": "material_15",
      "pbrMetallicRoughness": {
        "baseColorTexture": {
          "index": 14
        },
        "metallicFactor": 0.0
      }
    }
  ],
  "meshes": [
    {
      "name": "Object_0",
      "primitives": [
        {
          "attributes": {
            "NORMAL": 1,
            "POSITION": 0,
            "TEXCOORD_0": 2
          },
          "indices": 3,
          "material": 0,
          "mode": 4
        }
      ]
    },
    {
      "name": "Object_1",
      "primitives": [
        {
          "attributes": {
            "NORMAL": 5,
            "POSITION": 4,
            "TEXCOORD_0": 6
          },
          "indices": 7,
          "material": 1,
          "mode": 4
        }
      ]
    },
    {
      "name": "Object_2",
      "primitives": [
        {
          "attributes": {
            "NORMAL": 9,
            "POSITION": 8,
            "TEXCOORD_0": 10
          },
          "indices": 11,
          "material": 0,
          "mode": 4
        }
      ]
    },
    {
      "name": "Object_3",
      "primitives": [
        {
          "attributes": {
            "NORMAL": 13,
            "POSITION": 12,
            "TEXCOORD_0": 14
          },
          "indices": 15,
          "material": 1,
          "mode": 4
        }
      ]
    },
    {
      "name": "Object_4",
      "primitives": [
        {
          "attributes": {
            "NORMAL": 17,
            "POSITION": 16,
            "TEXCOORD_0": 18
          },
          "indices": 19,
          "material": 0,
          "mode": 4
        }
      ]
    },
    {
      "name": "Object_5",
      "primitives": [
        {
          "attributes": {
            "NORMAL": 21,
            "POSITION": 20,
            "TEXCOORD_0": 22
          },
          "indices": 23,
          "material": 1,
          "mode": 4
        }
      ]
    },
    {
      "name": "Object_6",
      "primitives": [
        {
          "attributes": {
            "NORMAL": 25,
            "POSITION": 24,
            "TEXCOORD_0": 26
          },
          "indices": 27,
          "material": 0,
          "mode": 4
        }
      ]
    },
    {
      "name": "Object_7",
      "primitives": [
        {
          "attributes": {
            "NORMAL": 29,
            "POSITION": 28,
            "TEXCOORD_0": 30
          },
          "indices": 31,
          "material": 1,
          "mode": 4
        }
      ]
    },
    {
      "name": "Object_8",
      "primitives": [
        {
          "attributes": {
            "NORMAL": 33,
            "POSITION": 32,
            "TEXCOORD_0": 34
          },
          "indices": 35,
          "material": 1,
          "mode": 4
        }
      ]
    },
    {
      "name": "Object_9",
      "primitives": [
        {
          "attributes": {
            "NORMAL": 37,
            "POSITION": 36,
            "TEXCOORD_0": 38
          },
          "indices": 39,
          "material": 1,
          "mode": 4
        }
      ]
    },
    {
      "name": "Object_10",
      "primitives": [
        {
          "attributes": {
            "NORMAL": 41,
            "POSITION": 40,
            "TEXCOORD_0": 42
          },
          "indices": 43,
          "material": 1,
          "mode": 4
        }
      ]
    },
    {
      "name": "Object_11",
      "primitives": [
        {
          "attributes": {
            "NORMAL": 45,
            "POSITION": 44,
            "TEXCOORD_0": 46
          },
          "indices": 47,
          "material": 2,
          "mode": 4
        }
      ]
    },
    {
      "name": "Object_12",
      "primitives": [
        {
          "attributes": {
            "NORMAL": 49,
            "POSITION": 48,
            "TEXCOORD_0": 50
          },
          "indices": 51,
          "material": 3,
          "mode": 4
        }
      ]
    },
    {
      "name": "Object_13",
      "primitives": [
        {
          "attributes": {
            "NORMAL": 53,
            "POSITION": 52,
            "TEXCOORD_0": 54
          },
          "indices": 55,
          "material": 3,
          "mode": 4
        }
      ]
    },
    {
      "name": "Object_14",
      "primitives": [
        {
          "attributes": {
            "NORMAL": 57,
            "POSITION": 56,
            "TEXCOORD_0": 58
          },
          "indices": 59,
          "material": 3,
          "mode": 4
        }
      ]
    },
    {
      "name": "Object_15",
      "primitives": [
        {
          "attributes": {
            "NORMAL": 61,
            "POSITION": 60,
            "TEXCOORD_0": 62
          },
          "indices": 63,
          "material": 3,
          "mode": 4
        }
      ]
    },
    {
      "name": "Object_16",
      "primitives": [
        {
          "attributes": {
            "NORMAL": 65,
            "POSITION": 64,
            "TEXCOORD_0": 66
          },
          "indices": 67,
          "material": 3,
          "mode": 4
        }
      ]
    },
    {
      "name": "Object_17",
      "primitives": [
        {
          "attributes": {
            "NORMAL": 69,
            "POSITION": 68,
            "TEXCOORD_0": 70
          },
          "indices": 71,
          "material": 3,
          "mode": 4
        }
      ]
    },
    {
      "name": "Object_18",
      "primitives": [
        {
          "attributes": {
            "NORMAL": 73,
            "POSITION": 72,
            "TEXCOORD_0": 74
          },
          "indices": 75,
          "material": 3,
          "mode": 4
        }
      ]
    },
    {
      "name": "Object_19",
      "primitives": [
        {
          "attributes": {
            "NORMAL": 77,
            "POSITION": 76,
            "TEXCOORD_0": 78
          },
          "indices": 79,
          "material": 3,
          "mode": 4
        }
      ]
    },
    {
      "name": "Object_20",
      "primitives": [
        {
          "attributes": {
            "NORMAL": 81,
            "POSITION": 80,
            "TEXCOORD_0": 82
          },
          "indices": 83,
          "material": 3,
          "mode": 4
        }
      ]
    },
    {
      "name": "Object_21",
      "primitives": [
        {
          "attributes": {
            "NORMAL": 85,
            "POSITION": 84,
            "TEXCOORD_0": 86
          },
          "indices": 87,
          "material": 5,
          "mode": 4
        }
      ]
    },
    {
      "name": "Object_22",
      "primitives": [
        {
          "attributes": {
            "NORMAL": 89,
            "POSITION": 88,
            "TEXCOORD_0": 90
          },
          "indices": 91,
          "material": 7,
          "mode": 4
        }
      ]
    },
    {
      "name": "Object_23",
      "primitives": [
        {
          "attributes": {
            "NORMAL": 93,
            "POSITION": 92,
            "TEXCOORD_0": 94
          },
          "indices": 95,
          "material": 10,
          "mode": 4
        }
      ]
    },
    {
      "name": "Object_24",
      "primitives": [
        {
          "attributes": {
            "NORMAL": 97,
            "POSITION": 96,
            "TEXCOORD_0": 98
          },
          "indices": 99,
          "material": 13,
          "mode": 4
        }
      ]
    },
    {
      "name": "Object_25",
      "primitives": [
        {
          "attributes": {
            "NORMAL": 101,
            "POSITION": 100,
            "TEXCOORD_0": 102
          },
          "indices": 103,
          "material": 4,
          "mode": 4
        }
      ]
    },
    {
      "name": "Object_26",
      "primitives": [
        {
          "attributes": {
            "NORMAL": 105,
            "POSITION": 104,
            "TEXCOORD_0": 106
          },
          "indices": 107,
          "material": 6,
          "mode": 4
        }
      ]
    },
    {
      "name": "Object_27",
      "primitives": [
        {
          "attributes": {
            "NORMAL": 109,
            "POSITION": 108,
            "TEXCOORD_0": 110
          },
          "indices": 111,
          "material": 8,
          "mode": 4
        }
      ]
    },
    {
      "name": "Object_28",
      "primitives": [
        {
          "attributes": {
            "NORMAL": 113,
            "POSITION": 112,
            "TEXCOORD_0": 114
          },
          "indices": 115,
          "material": 9,
          "mode": 4
        }
      ]
    },
    {
      "name": "Object_29",
      "primitives": [
        {
          "attributes": {
            "NORMAL": 117,
            "POSITION": 116,
            "TEXCOORD_0": 118
          },
          "indices": 119,
          "material": 11,
          "mode": 4
        }
      ]
    },
    {
      "name": "Object_30",
      "primitives": [
        {
          "attributes": {
            "NORMAL": 121,
            "POSITION": 120,
            "TEXCOORD_0": 122
          },
          "indices": 123,
          "material": 12,
          "mode": 4
        }
      ]
    },
    {
      "name": "Object_31",
      "primitives": [
        {
          "attributes": {
            "NORMAL": 125,
            "POSITION": 124,
            "TEXCOORD_0": 126
          },
          "indices": 127,
          "material": 2,
          "mode": 4
        }
      ]
    },
    {
      "name": "Object_32",
      "primitives": [
        {
          "attributes": {
            "NORMAL": 129,
            "POSITION": 128,
            "TEXCOORD_0": 130
          },
          "indices": 131,
          "material": 4,
          "mode": 4
        }
      ]
    },
    {
      "name": "Object_33",
      "primitives": [
        {
          "attributes": {
            "NORMAL": 133,
            "POSITION": 132,
            "TEXCOORD_0": 134
          },
          "indices": 135,
          "material": 4,
          "mode": 4
        }
      ]
    },
    {
      "name": "Object_34",
      "primitives": [
        {
          "attributes": {
            "NORMAL": 137,
            "POSITION": 136,
            "TEXCOORD_0": 138
          },
          "indices": 139,
          "material": 4,
          "mode": 4
        }
      ]
    },
    {
      "name": "Object_35",
      "primitives": [
        {
          "attributes": {
            "NORMAL": 141,
            "POSITION": 140,
            "TEXCOORD_0": 142
          },
          "indices": 143,
          "material": 4,
          "mode": 4
        }
      ]
    },
    {
      "name": "Object_36",
      "primitives": [
        {
          "attributes": {
            "NORMAL": 145,
            "POSITION": 144,
            "TEXCOORD_0": 146
          },
          "indices": 147,
          "material": 4,
          "mode": 4
        }
      ]
    },
    {
      "name": "Object_37",
      "primitives": [
        {
          "attributes": {
            "NORMAL": 149,
            "POSITION": 148,
            "TEXCOORD_0": 150
          },
          "indices": 151,
          "material": 4,
          "mode": 4
        }
      ]
    },
    {
      "name": "Object_38",
      "primitives": [
        {
          "attributes": {
            "NORMAL": 153,
            "POSITION": 152,
            "TEXCOORD_0": 154
          },
          "indices": 155,
          "material": 2,
          "mode": 4
        }
      ]
    },
    {
      "name": "Object_39",
      "primitives": [
        {
          "attributes": {
            "NORMAL": 157,
            "POSITION": 156,
            "TEXCOORD_0": 158
          },
          "indices": 159,
          "material": 2,
          "mode": 4
        }
      ]
    },
    {
      "name": "Object_40",
      "primitives": [
        {
          "attributes": {
            "NORMAL": 161,
            "POSITION": 160,
            "TEXCOORD_0": 162
          },
          "indices": 163,
          "material": 2,
          "mode": 4
        }
      ]
    },
    {
      "name": "Object_41",
      "primitives": [
        {
          "attributes": {
            "NORMAL": 165,
            "POSITION": 164,
            "TEXCOORD_0": 166
          },
          "indices": 167,
          "material": 2,
          "mode": 4
        }
      ]
    },
    {
      "name": "Object_42",
      "primitives": [
        {
          "attributes": {
            "NORMAL": 169,
            "POSITION": 168,
            "TEXCOORD_0": 170
          },
          "indices": 171,
          "material": 14,
          "mode": 4
        }
      ]
    },
    {
      "name": "Object_43",
      "primitives": [
        {
          "attributes": {
            "NORMAL": 173,
            "POSITION": 172,
            "TEXCOORD_0": 174
          },
          "indices": 175,
          "material": 15,
          "mode": 4
        }
      ]
    }
  ],
  "nodes": [
    {
      "children": [
        1
      ],
      "matrix": [
        1.0,
        0.0,
        0.0,
        0.0,
        0.0,
        2.220446049250313e-16,
        -1.0,
        0.0,
        0.0,
        1.0,
        2.220446049250313e-16,
        0.0,
        0.0,
        0.0,
        0.0,
        1.0
      ],
      "name": "Sketchfab_model"
    },
    {
      "children": [
        2
      ],
      "name": "root"
    },
    {
      "children": [
        3,
        84
      ],
      "matrix": [
        1.0,
        0.0,
        0.0,
        0.0,
        0.0,
        2.220446049250313e-16,
        1.0,
        0.0,
        0.0,
        -1.0,
        2.220446049250313e-16,
        0.0,
        0.0,
        0.0,
        0.0,
        1.0
      ],
      "name": "GLTF_SceneRootNode"
    },
    {
      "children": [
        4
      ],
      "name": "group_69"
    },
    {
      "children": [
        5,
        28,
        33,
        52,
        64,
        66,
        68,
        70,
        72,
        74,
        76,
        78,
        80,
        82
      ],
      "name": "group2_67"
    },
    {
      "children": [
        6
      ],
      "matrix": [
        1.0,
        0.0,
        0.0,
        0.0,
        0.0,
        1.0,
        0.0,
        0.0,
        0.0,
        0.0,
        1.0,
        0.0,
        0.0,
        0.38749998807907104,
        0.0,
        1.0
      ],
      "name": "group3_28"
    },
    {
      "children": [
        7
      ],
      "matrix": [
        1.0,
        0.0,
        0.0,
        0.0,
        0.0,
        1.0,
        0.0,
        0.0,
        0.0,
        0.0,
        1.0,
        0.0,
        0.0,
        -0.375,
        0.0,
        1.0
      ],
      "name": "group8_15"
    },
    {
      "children": [
        8,
        22,
        24,
        26
      ],
      "matrix": [
        1.0,
        0.0,
        0.0,
        0.0,
        0.0,
        1.0,
        0.0,
        0.0,
        0.0,
        0.0,
        1.0,
        0.0,
        2.875,
        -0.7124999761581421,
        -6.625,
        1.0
      ],
      "name": "group39_14"
    },
    {
      "children": [
        9
      ],
      "matrix": [
        1.0,
        0.0,
        0.0,
        0.0,
        0.0,
        1.0,
        0.0,
        0.0,
        0.0,
        0.0,
        1.0,
        0.0,
        -2.0000219345092773,
        3.495359420776367,
        5.666877269744873,
        1.0
      ],
      "name": "group40_10"
    },
    {
      "children": [
        10,
        13,
        16,
        19
      ],
      "matrix": [
        1.0,
        0.0,
        0.0,
        0.0,
        0.0,
        1.0,
        0.0,
        0.0,
        0.0,
        0.0,
        1.0,
        0.0,
        -0.01875000074505806,
        -0.15000000596046448,
        0.0,
        1.0
      ],
      "name": "group41_9"
    },
    {
      "children": [
        11,
        12
      ],
      "matrix": [
        0.9902680701353903,
        0.13917309104252054,
        0.0,
        0.0,
        -0.13917309104252054,
        0.9902680701353903,
        0.0,
        0.0,
        0.0,
        0.0,
        1.0,
        0.0,
        -0.005890000145882368,
        -1.9891718626022339,
        0.25,
        1.0
      ],
      "name": "cylinder_5"
    },
    {
      "mesh": 0,
      "name": "Object_11"
    },
    {
      "mesh": 1,
      "name": "Object_12"
    },
    {
      "children": [
        14,
        15
      ],
      "matrix": [
        0.9902680701353903,
        0.13917309104252054,
        0.0,
        0.0,
        -0.13917309104252054,
        0.9902680701353903,
        0.0,
        0.0,
        0.0,
        0.0,
        1.0,
        0.0,
        0.0753600001335144,
        -1.9954218864440918,
        9.668749809265137,
        1.0
      ],
      "name": "cylinder_6"
    },
    {
      "mesh": 2,
      "name": "Object_14"
    },
    {
      "mesh": 3,
      "name": "Object_15"
    },
    {
      "children": [
        17,
        18
      ],
      "matrix": [
        0.9148883933175437,
        -0.13917311018352976,
        -0.3789591972425086,
        0.0,
        0.12857918780173397,
        0.9902680674452969,
        -0.05325924391505519,
        0.0,
        0.38268344651564157,
        -1.6966868535139845e-09,
        0.9238795266499362,
        0.0,
        -1.7062431573867798,
        -2.219726324081421,
        9.793891906738281,
        1.0
      ],
      "name": "cylinder_7"
    },
    {
      "mesh": 4,
      "name": "Object_17"
    },
    {
      "mesh": 5,
      "name": "Object_18"
    },
    {
      "children": [
        20,
        21
      ],
      "matrix": [
        0.9902680701353903,
        -0.13917309104252054,
        0.0,
        0.0,
        0.13917309104252054,
        0.9902680701353903,
        0.0,
        0.0,
        0.0,
        -0.0,
        1.0,
        0.0,
        -1.7190662622451782,
        -1.9704219102859497,
        9.181249618530273,
        1.0
      ],
      "name": "cylinder_8"
    },
    {
      "mesh": 6,
      "name": "Object_20"
    },
    {
      "mesh": 7,
      "name": "Object_21"
    },
    {
      "children": [
        23
      ],
      "matrix": [
        0.0,
        0.0,
        -1.0,
        0.0,
        0.0,
        1.0,
        0.0,
        0.0,
        1.0,
        0.0,
        0.0,
        0.0,
        -2.0000219345092773,
        1.3703594207763672,
        5.666877269744873,
        1.0
      ],
      "name": "cuboid_11"
    },
    {
      "mesh": 8,
      "name": "Object_23"
    },
    {
      "children": [
        25
      ],
      "matrix": [
        0.0,
        0.0,
        1.0,
        0.0,
        -0.0,
        1.0,
        0.0,
        0.0,
        -1.0,
        0.0,
        0.0,
        0.0,
        -3.831228017807007,
        1.3328593969345093,
        5.666877269744873,
        1.0
      ],
      "name": "cuboid_12"
    },
    {
      "mesh": 9,
      "name": "Object_25"
    },
    {
      "children": [
        27
      ],
      "matrix": [
        0.7071067739978436,
        0.0,
        0.7071067883752514,
        0.0,
        -0.0,
        1.0,
        0.0,
        0.0,
        -0.7071067883752514,
        0.0,
        0.7071067739978436,
        0.0,
        -3.7361457347869873,
        1.3760031461715698,
        15.104389190673828,
        1.0
      ],
      "name": "cuboid_13"
    },
    {
      "mesh": 10,
      "name": "Object_27"
    },
    {
      "children": [
        29
      ],
      "matrix": [
        1.0,
        0.0,
        0.0,
        0.0,
        0.0,
        1.0,
        0.0,
        0.0,
        0.0,
        0.0,
        1.0,
        0.0,
        0.0,
        0.38749998807907104,
        -1.1875,
        1.0
      ],
      "name": "group7_43"
    },
    {
      "children": [
        30
      ],
      "matrix": [
        1.0,
        0.0,
        0.0,
        0.0,
        0.0,
        1.0,
        0.0,
        0.0,
        0.0,
        0.0,
        1.0,
        0.0,
        1.3125,
        0.3125,
        6.5,
        1.0
      ],
      "name": "group9_42"
    },
    {
      "children": [
        31
      ],
      "name": "group10_41",
      "translation": [
        0.0,
        0.5249999761581421,
        0.0
      ]
    },
    {
      "children": [
        32
      ],
      "matrix": [
        1.0,
        0.0,
        0.0,
        0.0,
        0.0,
        1.0,
        0.0,
        0.0,
        0.0,
        0.0,
        1.0,
        0.0,
        0.0,
        -0.006003125105053186,
        -0.0005825000116601586,
        1.0
      ],
      "name": "mesh_40"
    },
    {
      "mesh": 11,
      "name": "Object_32"
    },
    {
      "children": [
        34,
        36,
        38,
        40,
        42,
        44,
        46,
        48,
        50
      ],
      "matrix": [
        1.0,
        0.0,
        0.0,
        0.0,
        0.0,
        1.0,
        0.0,
        0.0,
        0.0,
        0.0,
        1.0,
        0.0,
        0.0,
        1.3250000476837158,
        0.0,
        1.0
      ],
      "name": "group42_55"
    },
    {
      "children": [
        35
      ],
      "matrix": [
        0.30070575003379185,
        0.0,
        0.9537169663462084,
        0.0,
        -0.0,
        1.0,
        0.0,
        0.0,
        -0.9537169663462084,
        -0.0,
        0.30070575003379185,
        0.0,
        -1.4691568613052368,
        -0.5136618614196777,
        3.237234354019165,
        1.0
      ],
      "name": "cuboid_46"
    },
    {
      "mesh": 12,
      "name": "Object_35"
    },
    {
      "children": [
        37
      ],
      "matrix": [
        0.30070575003379185,
        0.0,
        0.9537169663462084,
        0.0,
        -0.0,
        1.0,
        0.0,
        0.0,
        -0.9537169663462084,
        -0.0,
        0.30070575003379185,
        0.0,
        -1.2816568613052368,
        -0.5136618614196777,
        3.237234354019165,
        1.0
      ],
      "name": "cuboid_47"
    },
    {
      "mesh": 13,
      "name": "Object_37"
    },
    {
      "children": [
        39
      ],
      "matrix": [
        0.30070575003379185,
        0.0,
        0.9537169663462084,
        0.0,
        -0.0,
        1.0,
        0.0,
        0.0,
        -0.9537169663462084,
        -0.0,
        0.30070575003379185,
        0.0,
        -1.0316568613052368,
        -0.5136618614196777,
        3.237234354019165,
        1.0
      ],
      "name": "cuboid_48"
    },
    {
      "mesh": 14,
      "name": "Object_39"
    },
    {
      "children": [
        41
      ],
      "matrix": [
        0.30070575003379185,
        0.0,
        0.9537169663462084,
        0.0,
        -0.0,
        1.0,
        0.0,
        0.0,
        -0.9537169663462084,
        -0.0,
        0.30070575003379185,
        0.0,
        -1.0316568613052368,
        -0.5136618614196777,
        3.237234354019165,
        1.0
      ],
      "name": "cuboid_49"
    },
    {
      "mesh": 15,
      "name": "Object_41"
    },
    {
      "children": [
        43
      ],
      "matrix": [
        0.30070575003379185,
        0.0,
        0.9537169663462084,
        0.0,
        -0.0,
        1.0,
        0.0,
        0.0,
        -0.9537169663462084,
        -0.0,
        0.30070575003379185,
        0.0,
        -1.0316568613052368,
        -0.5136618614196777,
        4.112234592437744,
        1.0
      ],
      "name": "cuboid_50"
    },
    {
      "mesh": 16,
      "name": "Object_43"
    },
    {
      "children": [
        45
      ],
      "matrix": [
        -0.13052621820189336,
        0.9914448579532358,
        0.0,
        0.0,
        -0.9914448579532358,
        -0.13052621820189336,
        0.0,
        0.0,
        0.0,
        0.0,
        1.0,
        0.0,
        -0.0071359844878315926,
        -0.49281197786331177,
        -0.38999980688095093,
        1.0
      ],
      "name": "cuboid_selection_51"
    },
    {
      "mesh": 17,
      "name": "Object_45"
    },
    {
      "children": [
        47
      ],
      "matrix": [
        -0.13052621820189336,
        0.9914448579532358,
        0.0,
        0.0,
        -0.9914448579532358,
        -0.13052621820189336,
        0.0,
        0.0,
        0.0,
        0.0,
        1.0,
        0.0,
        -0.3821359872817993,
        -0.49281197786331177,
        1.0475002527236938,
        1.0
      ],
      "name": "cuboid_selection_52"
    },
    {
      "mesh": 18,
      "name": "Object_47"
    },
    {
      "children": [
        49
      ],
      "matrix": [
        0.30070575003379185,
        0.0,
        -0.9537169663462084,
        0.0,
        0.0,
        1.0,
        0.0,
        0.0,
        0.9537169663462084,
        0.0,
        0.30070575003379185,
        0.0,
        1.431656837463379,
        -0.5136618614196777,
        3.612234354019165,
        1.0
      ],
      "name": "cuboid_53"
    },
    {
      "mesh": 19,
      "name": "Object_49"
    },
    {
      "children": [
        51
      ],
      "matrix": [
        0.30070575003379185,
        0.0,
        -0.9537169663462084,
        0.0,
        0.0,
        1.0,
        0.0,
        0.0,
        0.9537169663462084,
        0.0,
        0.30070575003379185,
        0.0,
        1.431656837463379,
        -0.5136618614196777,
        2.549734354019165,
        1.0
      ],
      "name": "cuboid_54"
    },
    {
      "mesh": 20,
      "name": "Object_51"
    },
    {
      "children": [
        53,
        54,
        55,
        56,
        57,
        58,
        59,
        60,
        61,
        62,
        63
      ],
      "matrix": [
        1.0,
        0.0,
        0.0,
        0.0,
        0.0,
        1.0,
        0.0,
        0.0,
        0.0,
        0.0,
        1.0,
        0.0,
        0.0,
        0.38749998807907104,
        0.0,
        1.0
      ],
      "name": "mesh_selection_selection_56"
    },
    {
      "mesh": 21,
      "name": "Object_53"
    },
    {
      "mesh": 22,
      "name": "Object_54"
    },
    {
      "mesh": 23,
      "name": "Object_55"
    },
    {
      "mesh": 24,
      "name": "Object_56"
    },
    {
      "mesh": 25,
      "name": "Object_57"
    },
    {
      "mesh": 26,
      "name": "Object_58"
    },
    {
      "mesh": 27,
      "name": "Object_59"
    },
    {
      "mesh": 28,
      "name": "Object_60"
    },
    {
      "mesh": 29,
      "name": "Object_61"
    },
    {
      "mesh": 30,
      "name": "Object_62"
    },
    {
      "mesh": 31,
      "name": "Object_63"
    },
    {
      "children": [
        65
      ],
      "matrix": [
        1.0,
        0.0,
        -0.0,
        0.0,
        0.0,
        0.30070575003379185,
        -0.9537169663462084,
        0.0,
        0.0,
        0.9537169663462084,
        0.30070575003379185,
        0.0,
        0.30937498807907104,
        0.699999988079071,
        0.0,
        1.0
      ],
      "name": "mesh_selection_selection_57"
    },
    {
      "mesh": 32,
      "name": "Object_65"
    },
    {
      "children": [
        67
      ],
      "matrix": [
        1.0,
        0.0,
        0.0,
        0.0,
        0.0,
        0.7372773085860027,
        -0.6755902384168825,
        0.0,
        0.0,
        0.6755902384168825,
        0.7372773085860027,
        0.0,
        0.203125,
        0.7346073389053345,
        0.06254411488771439,
        1.0
      ],
      "name": "mesh_selection_selection_58"
    },
    {
      "mesh": 33,
      "name": "Object_67"
    },
    {
      "children": [
        69
      ],
      "matrix": [
        1.0,
        0.0,
        0.0,
        0.0,
        0.0,
        0.7372773085860027,
        -0.6755902384168825,
        0.0,
        0.0,
        0.6755902384168825,
        0.7372773085860027,
        0.0,
        0.2593750059604645,
        0.7346073389053345,
        0.06254411488771439,
        1.0
      ],
      "name": "mesh_selection_selection_59"
    },
    {
      "mesh": 34,
      "name": "Object_69"
    },
    {
      "children": [
        71
      ],
      "matrix": [
        1.0,
        0.0,
        0.0,
        0.0,
        0.0,
        0.7372773085860027,
        -0.6755902384168825,
        0.0,
        0.0,
        0.6755902384168825,
        0.7372773085860027,
        0.0,
        0.359375,
        0.7346073389053345,
        0.06254411488771439,
        1.0
      ],
      "name": "mesh_selection_selection_60"
    },
    {
      "mesh": 35,
      "name": "Object_71"
    },
    {
      "children": [
        73
      ],
      "matrix": [
        1.0,
        0.0,
        0.0,
        0.0,
        0.0,
        0.7372773085860027,
        -0.6755902384168825,
        0.0,
        0.0,
        0.6755902384168825,
        0.7372773085860027,
        0.0,
        0.4156250059604645,
        0.7346073389053345,
        0.06254411488771439,
        1.0
      ],
      "name": "mesh_selection_selection_61"
    },
    {
      "mesh": 36,
      "name": "Object_73"
    },
    {
      "children": [
        75
      ],
      "matrix": [
        1.0,
        0.0,
        0.0,
        0.0,
        0.0,
        0.7372773085860027,
        -0.6755902384168825,
        0.0,
        0.0,
        0.6755902384168825,
        0.7372773085860027,
        0.0,
        0.30937498807907104,
        0.7346073389053345,
        0.06254411488771439,
        1.0
      ],
      "name": "mesh_selection_selection_62"
    },
    {
      "mesh": 37,
      "name": "Object_75"
    },
    {
      "children": [
        77
      ],
      "matrix": [
        1.0,
        0.0,
        0.0,
        0.0,
        0.0,
        1.0,
        0.0,
        0.0,
        0.0,
        0.0,
        1.0,
        0.0,
        0.0,
        0.38749998807907104,
        0.0,
        1.0
      ],
      "name": "mesh_selection_selection_selection_63"
    },
    {
      "mesh": 38,
      "name": "Object_77"
    },
    {
      "children": [
        79
      ],
      "matrix": [
        1.0,
        0.0,
        0.0,
        0.0,
        0.0,
        1.0,
        0.0,
        0.0,
        0.0,
        0.0,
        1.0,
        0.0,
        0.8187500238418579,
        0.699999988079071,
        -0.11874999850988388,
        1.0
      ],
      "name": "mesh_selection_selection_selection_64"
    },
    {
      "mesh": 39,
      "name": "Object_79"
    },
    {
      "children": [
        81
      ],
      "matrix": [
        1.0,
        0.0,
        0.0,
        0.0,
        0.0,
        1.0,
        0.0,
        0.0,
        0.0,
        0.0,
        1.0,
        0.0,
        0.875,
        0.699999988079071,
        -0.08749999850988388,
        1.0
      ],
      "name": "mesh_selection_selection_selection_65"
    },
    {
      "mesh": 40,
      "name": "Object_81"
    },
    {
      "children": [
        83
      ],
      "matrix": [
        1.0,
        0.0,
        0.0,
        0.0,
        0.0,
        1.0,
        0.0,
        0.0,
        0.0,
        0.0,
        1.0,
        0.0,
        0.90625,
        0.699999988079071,
        -0.06875000149011612,
        1.0
      ],
      "name": "mesh_selection_selection_selection_66"
    },
    {
      "mesh": 41,
      "name": "Object_83"
    },
    {
      "children": [
        85,
        87
      ],
      "name": "group32_72"
    },
    {
      "children": [
        86
      ],
      "matrix": [
        -1.0,
        -1.2193148870682768e-16,
        1.2246400284518745e-16,
        0.0,
        -1.2246467635038844e-16,
        0.9999904807199189,
        -0.004363309471665551,
        0.0,
        -1.2193081225647575e-16,
        -0.004363309471665551,
        -0.9999904807199189,
        0.0,
        -0.0625,
        0.7171875238418579,
        -3.987499952316284,
        1.0
      ],
      "name": "plane_70"
    },
    {
      "mesh": 42,
      "name": "Object_86"
    },
    {
      "children": [
        88
      ],
      "matrix": [
        0.0,
        0.0,
        1.0,
        0.0,
        1.0,
        0.0,
        0.0,
        0.0,
        0.0,
        1.0,
        0.0,
        0.0,
        1.506250023841858,
        0.862500011920929,
        4.118750095367432,
        1.0
      ],
      "name": "plane_71"
    },
    {
      "mesh": 43,
      "name": "Object_88"
    }
  ],
  "samplers": [
    {
      "magFilter": 9728,
      "minFilter": 9728,
      "wrapS": 33071,
      "wrapT": 33071
    }
  ],
  "scene": 0,
  "scenes": [
    {
      "name": "Sketchfab_Scene",
      "nodes": [
        0
      ]
    }
  ],
  "textures": [
    {
      "sampler": 0,
      "source": 0
    },
    {
      "sampler": 0,
      "source": 1
    },
    {
      "sampler": 0,
      "source": 2
    },
    {
      "sampler": 0,
      "source": 3
    },
    {
      "sampler": 0,
      "source": 4
    },
    {
      "sampler": 0,
      "source": 5
    },
    {
      "sampler": 0,
      "source": 6
    },
    {
      "sampler": 0,
      "source": 7
    },
    {
      "sampler": 0,
      "source": 8
    },
    {
      "sampler": 0,
      "source": 9
    },
    {
      "sampler": 0,
      "source": 10
    },
    {
      "sampler": 0,
      "source": 11
    },
    {
      "sampler": 0,
      "source": 12
    },
    {
      "sampler": 0,
      "source": 13
    },
    {
      "sampler": 0,
      "source": 14
    }
  ]
}
