{
  "accessors": [
    {
      "bufferView": 1,
      "componentType": 5126,
      "count": 1310,
      "max": [
        7.581813812255859,
        -0.8421559929847717,
        5.171827793121338
      ],
      "min": [
        3.865849018096924,
        -1.2682980298995972,
        4.857761859893799
      ],
      "type": "VEC3"
    },
    {
      "bufferView": 1,
      "byteOffset": 15720,
      "componentType": 5126,
      "count": 1310,
      "max": [
        0.9991572499275208,
        0.999158501625061,
        1.0
      ],
      "min": [
        -0.999156653881073,
        -0.9991583824157715,
        -1.0
      ],
      "type": "VEC3"
    },
    {
      "bufferView": 0,
      "componentType": 5125,
      "count": 1956,
      "type": "SCALAR"
    }
  ],
  "asset": {
    "extras": {
      "author": "Griffbolt (https://sketchfab.com/blixinc00)",
      "license": "CC-BY-4.0 (http://creativecommons.org/licenses/by/4.0/)",
      "source": "https://sketchfab.com/3d-models/tbf-torpedo-165ad36d4c414cb3afea070141d308f4",
      "title": "TBF Torpedo"
    },
    "generator": "Sketchfab-12.66.0",
    "version": "2.0"
  },
  "bufferViews": [
    {
      "buffer": 0,
      "byteLength": 7824,
      "name": "floatBufferViews",
      "target": 34963
    },
    {
      "buffer": 0,
      "byteLength": 31440,
      "byteOffset": 7824,
      "byteStride": 12,
      "name": "floatBufferViews",
      "target": 34962
    }
  ],
  "buffers": [
    {
      "byteLength": 39264,
      "uri": "scene.bin"
    }
  ],
  "materials": [
    {
      "doubleSided": true,
      "name": "Material",
      "pbrMetallicRoughness": {
        "baseColorFactor": [
          0.5,
          0.5,
          0.5,
          1.0
        ],
        "metallicFactor": 0.0,
        "roughnessFactor": 0.6
      }
    }
  ],
  "meshes": [
    {
      "name": "Object_0",
      "primitives": [
        {
          "attributes": {
            "NORMAL": 1,
            "POSITION": 0
          },
          "indices": 2,
          "material": 0,
          "mode": 4
        }
      ]
    }
  ],
  "nodes": [
    {
      "children": [
        1
      ],
      "matrix": [
        1.0,
        0.0,
        0.0,
        0.0,
        0.0,
        2.220446049250313e-16,
        -1.0,
        0.0,
        0.0,
        1.0,
        2.220446049250313e-16,
        0.0,
        0.0,
        0.0,
        0.0,
        1.0
      ],
      "name": "Sketchfab_model"
    },
    {
      "children": [
        2
      ],
      "name": "1a3656e676414967b76075352176154c.obj.cleaner.gles"
    },
    {
      "mesh": 0,
      "name": "Object_2"
    }
  ],
  "scene": 0,
  "scenes": [
    {
      "name": "Sketchfab_Scene",
      "nodes": [
        0
      ]
    }
  ]
}
