{
  "accessors": [
    {
      "bufferView": 3,
      "componentType": 5126,
      "count": 65532,
      "max": [
        10.534331321716309,
        14.49897289276123,
        11.027970314025879
      ],
      "min": [
        -96.03399658203125,
        -13.466840744018555,
        -11.016754150390625
      ],
      "type": "VEC3"
    },
    {
      "bufferView": 3,
      "byteOffset": 786384,
      "componentType": 5126,
      "count": 65532,
      "max": [
        0.9999839663505554,
        0.9999985694885254,
        0.9999919533729553
      ],
      "min": [
        -0.9991881847381592,
        -0.9999969601631165,
        -0.9999986886978149
      ],
      "type": "VEC3"
    },
    {
      "bufferView": 2,
      "componentType": 5126,
      "count": 65532,
      "max": [
        1.7770720720291138,
        1.9348117113113403
      ],
      "min": [
        -0.9991835355758667,
        -0.9638036489486694
      ],
      "type": "VEC2"
    },
    {
      "bufferView": 1,
      "componentType": 5125,
      "count": 309924,
      "type": "SCALAR"
    },
    {
      "bufferView": 3,
      "byteOffset": 1572768,
      "componentType": 5126,
      "count": 57576,
      "max": [
        10.534331321716309,
        14.433243751525879,
        14.3644380569458
      ],
      "min": [
        -96.03399658203125,
        -13.46681022644043,
        -14.364439010620117
      ],
      "type": "VEC3"
    },
    {
      "bufferView": 3,
      "byteOffset": 2263680,
      "componentType": 5126,
      "count": 57576,
      "max": [
        0.999974250793457,
        0.999989926815033,
        0.9999908804893494
      ],
      "min": [
        -0.9999628067016602,
        -0.9999361038208008,
        -0.9999992847442627
      ],
      "type": "VEC3"
    },
    {
      "bufferView": 2,
      "byteOffset": 524256,
      "componentType": 5126,
      "count": 57576,
      "max": [
        1.9375461339950562,
        1.9631643295288086
      ],
      "min": [
        -0.9964019060134888,
        -0.9638036489486694
      ],
      "type": "VEC2"
    },
    {
      "bufferView": 1,
      "byteOffset": 1239696,
      "componentType": 5125,
      "count": 218127,
      "type": "SCALAR"
    },
    {
      "bufferView": 3,
      "byteOffset": 2954592,
      "componentType": 5126,
      "count": 35281,
      "max": [
        10.183154106140137,
        7.956557750701904,
        8.467020034790039
      ],
      "min": [
        -15.00446605682373,
        -9.24354076385498,
        -8.42978572845459
      ],
      "type": "VEC3"
    },
    {
      "bufferView": 3,
      "byteOffset": 3377964,
      "componentType": 5126,
      "count": 35281,
      "max": [
        0.9999839663505554,
        0.9999982118606567,
        0.999968945980072
      ],
      "min": [
        -0.9473342299461365,
        -0.9999940991401672,
        -0.9999596476554871
      ],
      "type": "VEC3"
    },
    {
      "bufferView": 2,
      "byteOffset": 984864,
      "componentType": 5126,
      "count": 35281,
      "max": [
        1.9371984004974365,
        1.6734205484390259
      ],
      "min": [
        0.26904186606407166,
        -0.9635356664657593
      ],
      "type": "VEC2"
    },
    {
      "bufferView": 1,
      "byteOffset": 2112204,
      "componentType": 5125,
      "count": 185358,
      "type": "SCALAR"
    },
    {
      "bufferView": 3,
      "byteOffset": 3801336,
      "componentType": 5126,
      "count": 282,
      "max": [
        7.527921199798584,
        7.836070537567139,
        6.776449203491211
      ],
      "min": [
        6.450480937957764,
        6.761640548706055,
        -6.7764482498168945
      ],
      "type": "VEC3"
    },
    {
      "bufferView": 3,
      "byteOffset": 3804720,
      "componentType": 5126,
      "count": 282,
      "max": [
        0.9988771080970764,
        0.9999060034751892,
        1.0
      ],
      "min": [
        -0.9999998211860657,
        -0.9999525547027588,
        -1.0
      ],
      "type": "VEC3"
    },
    {
      "bufferView": 2,
      "byteOffset": 1267112,
      "componentType": 5126,
      "count": 282,
      "max": [
        0.8750001192092896,
        1.0000001192092896
      ],
      "min": [
        0.1250000149011612,
        0.0
      ],
      "type": "VEC2"
    },
    {
      "bufferView": 1,
      "byteOffset": 2853636,
      "componentType": 5125,
      "count": 1344,
      "type": "SCALAR"
    },
    {
      "bufferView": 3,
      "byteOffset": 3808104,
      "componentType": 5126,
      "count": 35673,
      "max": [
        -8.26248836517334,
        5.820201396942139,
        33.86566925048828
      ],
      "min": [
        -112.39836120605469,
        -16.501176834106445,
        -34.05727767944336
      ],
      "type": "VEC3"
    },
    {
      "bufferView": 3,
      "byteOffset": 4236180,
      "componentType": 5126,
      "count": 35673,
      "max": [
        0.9837438464164734,
        0.9998964071273804,
        0.9998267292976379
      ],
      "min": [
        -0.9999276995658875,
        -0.9999047517776489,
        -0.9998267889022827
      ],
      "type": "VEC3"
    },
    {
      "bufferView": 2,
      "byteOffset": 1269368,
      "componentType": 5126,
      "count": 35673,
      "max": [
        1.2514859437942505,
        1.3605434894561768
      ],
      "min": [
        -0.33164334297180176,
        -0.36054354906082153
      ],
      "type": "VEC2"
    },
    {
      "bufferView": 1,
      "byteOffset": 2859012,
      "componentType": 5125,
      "count": 183123,
      "type": "SCALAR"
    },
    {
      "bufferView": 3,
      "byteOffset": 4664256,
      "componentType": 5126,
      "count": 65533,
      "max": [
        9.822331428527832,
        6.903249740600586,
        9.720839500427246
      ],
      "min": [
        -4.869110107421875,
        -9.069113731384277,
        -7.197195529937744
      ],
      "type": "VEC3"
    },
    {
      "bufferView": 3,
      "byteOffset": 5450652,
      "componentType": 5126,
      "count": 65533,
      "max": [
        0.9998947381973267,
        0.999990701675415,
        0.9999960064888
      ],
      "min": [
        -0.9999828338623047,
        -0.9991675615310669,
        -0.9996677041053772
      ],
      "type": "VEC3"
    },
    {
      "bufferView": 2,
      "byteOffset": 1554752,
      "componentType": 5126,
      "count": 65533,
      "max": [
        0.8234071731567383,
        1.0060874223709106
      ],
      "min": [
        -0.6255457401275635,
        0.2826855182647705
      ],
      "type": "VEC2"
    },
    {
      "bufferView": 1,
      "byteOffset": 3591504,
      "componentType": 5125,
      "count": 73869,
      "type": "SCALAR"
    },
    {
      "bufferView": 3,
      "byteOffset": 6237048,
      "componentType": 5126,
      "count": 65532,
      "max": [
        9.966248512268066,
        7.28674840927124,
        7.6486077308654785
      ],
      "min": [
        5.681345462799072,
        -7.699440002441406,
        -7.69323205947876
      ],
      "type": "VEC3"
    },
    {
      "bufferView": 3,
      "byteOffset": 7023432,
      "componentType": 5126,
      "count": 65532,
      "max": [
        0.9998623728752136,
        0.999728798866272,
        0.9999715685844421
      ],
      "min": [
        -0.9999976754188538,
        -0.9999764561653137,
        -0.9994181394577026
      ],
      "type": "VEC3"
    },
    {
      "bufferView": 2,
      "byteOffset": 2079016,
      "componentType": 5126,
      "count": 65532,
      "max": [
        0.8234071731567383,
        0.7032329440116882
      ],
      "min": [
        0.1730836033821106,
        0.2657893896102905
      ],
      "type": "VEC2"
    },
    {
      "bufferView": 1,
      "byteOffset": 3886980,
      "componentType": 5125,
      "count": 73914,
      "type": "SCALAR"
    },
    {
      "bufferView": 3,
      "byteOffset": 7809816,
      "componentType": 5126,
      "count": 29313,
      "max": [
        9.81789779663086,
        7.240857124328613,
        4.895160675048828
      ],
      "min": [
        7.697686672210693,
        5.927208423614502,
        -4.379552841186523
      ],
      "type": "VEC3"
    },
    {
      "bufferView": 3,
      "byteOffset": 8161572,
      "componentType": 5126,
      "count": 29313,
      "max": [
        0.9865251779556274,
        0.888379693031311,
        0.9998971819877625
      ],
      "min": [
        -0.9999161958694458,
        -0.9990684390068054,
        -0.9984408617019653
      ],
      "type": "VEC3"
    },
    {
      "bufferView": 2,
      "byteOffset": 2603272,
      "componentType": 5126,
      "count": 29313,
      "max": [
        0.8284745216369629,
        0.7049505710601807
      ],
      "min": [
        0.18295437097549438,
        0.3079618215560913
      ],
      "type": "VEC2"
    },
    {
      "bufferView": 1,
      "byteOffset": 4182636,
      "componentType": 5125,
      "count": 32817,
      "type": "SCALAR"
    },
    {
      "bufferView": 3,
      "byteOffset": 8513328,
      "componentType": 5126,
      "count": 65532,
      "max": [
        9.88748550415039,
        7.3606109619140625,
        9.753071784973145
      ],
      "min": [
        -4.891962051391602,
        -9.145159721374512,
        -6.175510883331299
      ],
      "type": "VEC3"
    },
    {
      "bufferView": 3,
      "byteOffset": 9299712,
      "componentType": 5126,
      "count": 65532,
      "max": [
        0.9999211430549622,
        0.9999759197235107,
        0.9999988079071045
      ],
      "min": [
        -0.9999929666519165,
        -0.9999676942825317,
        -0.9991281628608704
      ],
      "type": "VEC3"
    },
    {
      "bufferView": 2,
      "byteOffset": 2837776,
      "componentType": 5126,
      "count": 65532,
      "max": [
        1.7834844589233398,
        1.646712064743042
      ],
      "min": [
        -0.7834844589233398,
        -0.7695327997207642
      ],
      "type": "VEC2"
    },
    {
      "bufferView": 1,
      "byteOffset": 4313904,
      "componentType": 5125,
      "count": 71937,
      "type": "SCALAR"
    },
    {
      "bufferView": 3,
      "byteOffset": 10086096,
      "componentType": 5126,
      "count": 65533,
      "max": [
        9.678851127624512,
        7.3606109619140625,
        7.716825008392334
      ],
      "min": [
        5.721179008483887,
        -7.036857604980469,
        -7.770958423614502
      ],
      "type": "VEC3"
    },
    {
      "bufferView": 3,
      "byteOffset": 10872492,
      "componentType": 5126,
      "count": 65533,
      "max": [
        0.9999432563781738,
        0.9999780058860779,
        0.9999715685844421
      ],
      "min": [
        -0.9999976754188538,
        -0.9995182752609253,
        -0.999591588973999
      ],
      "type": "VEC3"
    },
    {
      "bufferView": 2,
      "byteOffset": 3362032,
      "componentType": 5126,
      "count": 65533,
      "max": [
        1.7834844589233398,
        1.646712064743042
      ],
      "min": [
        -0.782886266708374,
        -0.7695327997207642
      ],
      "type": "VEC2"
    },
    {
      "bufferView": 1,
      "byteOffset": 4601652,
      "componentType": 5125,
      "count": 72432,
      "type": "SCALAR"
    },
    {
      "bufferView": 3,
      "byteOffset": 11658888,
      "componentType": 5126,
      "count": 15803,
      "max": [
        9.98857307434082,
        7.234557151794434,
        4.544557571411133
      ],
      "min": [
        8.297920227050781,
        6.408924579620361,
        -4.098473072052002
      ],
      "type": "VEC3"
    },
    {
      "bufferView": 3,
      "byteOffset": 11848524,
      "componentType": 5126,
      "count": 15803,
      "max": [
        0.9975528717041016,
        0.9999620318412781,
        0.9952057003974915
      ],
      "min": [
        -0.9999753832817078,
        -0.9971553087234497,
        -0.9988060593605042
      ],
      "type": "VEC3"
    },
    {
      "bufferView": 2,
      "byteOffset": 3886296,
      "componentType": 5126,
      "count": 15803,
      "max": [
        1.7814817428588867,
        1.754317045211792
      ],
      "min": [
        -0.7781825065612793,
        -0.7695327997207642
      ],
      "type": "VEC2"
    },
    {
      "bufferView": 1,
      "byteOffset": 4891380,
      "componentType": 5125,
      "count": 17547,
      "type": "SCALAR"
    },
    {
      "bufferView": 5,
      "componentType": 5126,
      "count": 31,
      "max": [
        100.0,
        0.01395968347787857,
        0.06218601018190384,
        0.0,
        0.011235551908612251,
        100.00000762939453,
        0.009267447516322136,
        0.0,
        0.0010578255169093609,
        6.114695594305886e-08,
        100.0,
        0.0,
        7.190492630004883,
        1.1685047149658203,
        7.0431060791015625,
        1.0
      ],
      "min": [
        -0.0659576803445816,
        -0.011524105444550514,
        -0.06248074024915695,
        0.0,
        -0.009826921857893467,
        -0.07781073451042175,
        -0.009267444722354412,
        0.0,
        -0.11168988794088364,
        -3.3634512952573914e-09,
        -0.11168991774320602,
        0.0,
        -7.190491676330566,
        -1.3093304634094238,
        -7.043101787567139,
        1.0
      ],
      "type": "MAT4"
    },
    {
      "bufferView": 0,
      "componentType": 5123,
      "count": 65532,
      "type": "VEC4"
    },
    {
      "bufferView": 4,
      "componentType": 5126,
      "count": 65532,
      "max": [
        1.0,
        0.4999670088291168,
        0.32771363854408264,
        0.2260788083076477
      ],
      "min": [
        0.27518752217292786,
        0.0,
        0.0,
        0.0
      ],
      "type": "VEC4"
    },
    {
      "bufferView": 0,
      "byteOffset": 524256,
      "componentType": 5123,
      "count": 57576,
      "type": "VEC4"
    },
    {
      "bufferView": 4,
      "byteOffset": 1048512,
      "componentType": 5126,
      "count": 57576,
      "max": [
        1.0,
        0.499994695186615,
        0.32771363854408264,
        0.21815964579582214
      ],
      "min": [
        0.3027826249599457,
        0.0,
        0.0,
        0.0
      ],
      "type": "VEC4"
    },
    {
      "bufferView": 0,
      "byteOffset": 984864,
      "componentType": 5123,
      "count": 35281,
      "type": "VEC4"
    },
    {
      "bufferView": 4,
      "byteOffset": 1969728,
      "componentType": 5126,
      "count": 35281,
      "max": [
        1.0,
        0.4201119542121887,
        0.31770309805870056,
        0.22994720935821533
      ],
      "min": [
        0.2642097473144531,
        0.0,
        0.0,
        0.0
      ],
      "type": "VEC4"
    },
    {
      "bufferView": 0,
      "byteOffset": 1267112,
      "componentType": 5123,
      "count": 282,
      "type": "VEC4"
    },
    {
      "bufferView": 4,
      "byteOffset": 2534224,
      "componentType": 5126,
      "count": 282,
      "max": [
        0.39360570907592773,
        0.28977513313293457,
        0.2562200129032135,
        0.1790948212146759
      ],
      "min": [
        0.3374797999858856,
        0.2622460722923279,
        0.2151656299829483,
        0.0748063400387764
      ],
      "type": "VEC4"
    },
    {
      "bufferView": 0,
      "byteOffset": 1269368,
      "componentType": 5123,
      "count": 35673,
      "type": "VEC4"
    },
    {
      "bufferView": 4,
      "byteOffset": 2538736,
      "componentType": 5126,
      "count": 35673,
      "max": [
        1.0,
        0.49999529123306274,
        0.2904573082923889,
        0.23967646062374115
      ],
      "min": [
        0.26014360785484314,
        0.0,
        0.0,
        0.0
      ],
      "type": "VEC4"
    },
    {
      "bufferView": 0,
      "byteOffset": 1554752,
      "componentType": 5123,
      "count": 65533,
      "type": "VEC4"
    },
    {
      "bufferView": 4,
      "byteOffset": 3109504,
      "componentType": 5126,
      "count": 65533,
      "max": [
        0.9709950685501099,
        0.4144575595855713,
        0.2702607214450836,
        0.19751350581645966
      ],
      "min": [
        0.31023967266082764,
        0.016179949045181274,
        0.012824924662709236,
        0.0
      ],
      "type": "VEC4"
    },
    {
      "bufferView": 0,
      "byteOffset": 2079016,
      "componentType": 5123,
      "count": 65532,
      "type": "VEC4"
    },
    {
      "bufferView": 4,
      "byteOffset": 4158032,
      "componentType": 5126,
      "count": 65532,
      "max": [
        0.7487614154815674,
        0.411361962556839,
        0.26901698112487793,
        0.20010516047477722
      ],
      "min": [
        0.3054400682449341,
        0.11183696240186691,
        0.07654969394207001,
        0.0473451130092144
      ],
      "type": "VEC4"
    },
    {
      "bufferView": 0,
      "byteOffset": 2603272,
      "componentType": 5123,
      "count": 29313,
      "type": "VEC4"
    },
    {
      "bufferView": 4,
      "byteOffset": 5206544,
      "componentType": 5126,
      "count": 29313,
      "max": [
        0.39361461997032166,
        0.3232165277004242,
        0.2675047814846039,
        0.15154758095741272
      ],
      "min": [
        0.32237422466278076,
        0.26390454173088074,
        0.22342097759246826,
        0.0825602114200592
      ],
      "type": "VEC4"
    },
    {
      "bufferView": 0,
      "byteOffset": 2837776,
      "componentType": 5123,
      "count": 65532,
      "type": "VEC4"
    },
    {
      "bufferView": 4,
      "byteOffset": 5675552,
      "componentType": 5126,
      "count": 65532,
      "max": [
        0.9532514810562134,
        0.4148702025413513,
        0.27050545811653137,
        0.16784833371639252
      ],
      "min": [
        0.3056853413581848,
        0.023850291967391968,
        0.021310700103640556,
        0.0
      ],
      "type": "VEC4"
    },
    {
      "bufferView": 0,
      "byteOffset": 3362032,
      "componentType": 5123,
      "count": 65533,
      "type": "VEC4"
    },
    {
      "bufferView": 4,
      "byteOffset": 6724064,
      "componentType": 5126,
      "count": 65533,
      "max": [
        0.7487614154815674,
        0.3725910484790802,
        0.26632460951805115,
        0.20151208341121674
      ],
      "min": [
        0.3054018020629883,
        0.11128071695566177,
        0.07650553435087204,
        0.04724152386188507
      ],
      "type": "VEC4"
    },
    {
      "bufferView": 0,
      "byteOffset": 3886296,
      "componentType": 5123,
      "count": 15803,
      "type": "VEC4"
    },
    {
      "bufferView": 4,
      "byteOffset": 7772592,
      "componentType": 5126,
      "count": 15803,
      "max": [
        0.38030681014060974,
        0.3176572918891907,
        0.2690103054046631,
        0.14377103745937347
      ],
      "min": [
        0.3312835693359375,
        0.26633742451667786,
        0.22537077963352203,
        0.0821598619222641
      ],
      "type": "VEC4"
    },
    {
      "bufferView": 6,
      "componentType": 5126,
      "count": 149,
      "max": [
        4.958333492279053
      ],
      "min": [
        0.0
      ],
      "type": "SCALAR"
    },
    {
      "bufferView": 7,
      "componentType": 5126,
      "count": 149,
      "max": [
        0.42464911937713623,
        0.02012801170349121,
        -0.006367928348481655
      ],
      "min": [
        0.42464905977249146,
        0.020127415657043457,
        -0.006367990747094154
      ],
      "type": "VEC3"
    },
    {
      "bufferView": 6,
      "byteOffset": 596,
      "componentType": 5126,
      "count": 4,
      "max": [
        4.958333492279053
      ],
      "min": [
        0.0
      ],
      "type": "SCALAR"
    },
    {
      "bufferView": 7,
      "byteOffset": 1788,
      "componentType": 5126,
      "count": 4,
      "max": [
        1.0,
        1.0,
        1.0000001192092896
      ],
      "min": [
        0.9999999403953552,
        1.0,
        1.0
      ],
      "type": "VEC3"
    },
    {
      "bufferView": 6,
      "byteOffset": 612,
      "componentType": 5126,
      "count": 149,
      "max": [
        4.958333492279053
      ],
      "min": [
        0.0
      ],
      "type": "SCALAR"
    },
    {
      "bufferView": 8,
      "componentType": 5126,
      "count": 149,
      "max": [
        -2.254705755433406e-08,
        -0.4907640218734741,
        1.3895672168473538e-08,
        0.8712925314903259
      ],
      "min": [
        -2.288109079984224e-08,
        -0.4907640516757965,
        -4.810038145564022e-09,
        0.8712925314903259
      ],
      "type": "VEC4"
    },
    {
      "bufferView": 6,
      "byteOffset": 1208,
      "componentType": 5126,
      "count": 236,
      "max": [
        4.958333492279053
      ],
      "min": [
        0.0
      ],
      "type": "SCALAR"
    },
    {
      "bufferView": 7,
      "byteOffset": 1836,
      "componentType": 5126,
      "count": 236,
      "max": [
        0.4979472756385803,
        0.01940189301967621,
        -0.008060246706008911
      ],
      "min": [
        0.49794715642929077,
        0.01940186321735382,
        -0.00806039571762085
      ],
      "type": "VEC3"
    },
    {
      "bufferView": 6,
      "byteOffset": 2152,
      "componentType": 5126,
      "count": 8,
      "max": [
        4.958333492279053
      ],
      "min": [
        0.0
      ],
      "type": "SCALAR"
    },
    {
      "bufferView": 7,
      "byteOffset": 4668,
      "componentType": 5126,
      "count": 8,
      "max": [
        1.0,
        1.0,
        1.0
      ],
      "min": [
        1.0,
        0.9999998211860657,
        0.9999999403953552
      ],
      "type": "VEC3"
    },
    {
      "bufferView": 6,
      "byteOffset": 2184,
      "componentType": 5126,
      "count": 236,
      "max": [
        4.958333492279053
      ],
      "min": [
        0.0
      ],
      "type": "SCALAR"
    },
    {
      "bufferView": 8,
      "byteOffset": 2384,
      "componentType": 5126,
      "count": 236,
      "max": [
        0.021892543882131577,
        0.20277976989746094,
        0.10038447380065918,
        0.9793074131011963
      ],
      "min": [
        -0.011292258277535439,
        0.17512549459934235,
        -0.05597635358572006,
        0.979032576084137
      ],
      "type": "VEC4"
    },
    {
      "bufferView": 6,
      "byteOffset": 3128,
      "componentType": 5126,
      "count": 236,
      "max": [
        4.958333492279053
      ],
      "min": [
        0.0
      ],
      "type": "SCALAR"
    },
    {
      "bufferView": 7,
      "byteOffset": 4764,
      "componentType": 5126,
      "count": 236,
      "max": [
        0.35996973514556885,
        0.0036510303616523743,
        0.45712316036224365
      ],
      "min": [
        0.3599696457386017,
        0.003650873899459839,
        0.4571231007575989
      ],
      "type": "VEC3"
    },
    {
      "bufferView": 6,
      "byteOffset": 4072,
      "componentType": 5126,
      "count": 4,
      "max": [
        4.958333492279053
      ],
      "min": [
        0.0
      ],
      "type": "SCALAR"
    },
    {
      "bufferView": 7,
      "byteOffset": 7596,
      "componentType": 5126,
      "count": 4,
      "max": [
        1.0,
        1.0,
        1.0
      ],
      "min": [
        1.0,
        0.9999999403953552,
        0.9999999403953552
      ],
      "type": "VEC3"
    },
    {
      "bufferView": 6,
      "byteOffset": 4088,
      "componentType": 5126,
      "count": 236,
      "max": [
        4.958333492279053
      ],
      "min": [
        0.0
      ],
      "type": "SCALAR"
    },
    {
      "bufferView": 8,
      "byteOffset": 6160,
      "componentType": 5126,
      "count": 236,
      "max": [
        0.00522590521723032,
        -0.4539544880390167,
        0.003512617200613022,
        0.8910157084465027
      ],
      "min": [
        -0.0020185874309390783,
        -0.46378448605537415,
        -0.009646295569837093,
        0.8859029412269592
      ],
      "type": "VEC4"
    },
    {
      "bufferView": 6,
      "byteOffset": 5032,
      "componentType": 5126,
      "count": 28,
      "max": [
        4.958333492279053
      ],
      "min": [
        0.0
      ],
      "type": "SCALAR"
    },
    {
      "bufferView": 7,
      "byteOffset": 7644,
      "componentType": 5126,
      "count": 28,
      "max": [
        0.2972831726074219,
        0.155537411570549,
        0.1224336177110672
      ],
      "min": [
        0.2972829043865204,
        0.15553733706474304,
        0.1224336177110672
      ],
      "type": "VEC3"
    },
    {
      "bufferView": 6,
      "byteOffset": 5144,
      "componentType": 5126,
      "count": 4,
      "max": [
        4.958333492279053
      ],
      "min": [
        0.0
      ],
      "type": "SCALAR"
    },
    {
      "bufferView": 7,
      "byteOffset": 7980,
      "componentType": 5126,
      "count": 4,
      "max": [
        0.9999999403953552,
        1.0,
        1.0
      ],
      "min": [
        0.9999998807907104,
        1.0,
        1.0
      ],
      "type": "VEC3"
    },
    {
      "bufferView": 6,
      "byteOffset": 5160,
      "componentType": 5126,
      "count": 237,
      "max": [
        4.958333492279053
      ],
      "min": [
        0.0
      ],
      "type": "SCALAR"
    },
    {
      "bufferView": 8,
      "byteOffset": 9936,
      "componentType": 5126,
      "count": 237,
      "max": [
        0.08620449900627136,
        2.8681577532552183e-05,
        0.10160399973392487,
        0.9999246001243591
      ],
      "min": [
        -0.1539648175239563,
        -0.051278695464134216,
        -0.0811329334974289,
        0.9815083146095276
      ],
      "type": "VEC4"
    },
    {
      "bufferView": 6,
      "byteOffset": 6108,
      "componentType": 5126,
      "count": 149,
      "max": [
        4.958333492279053
      ],
      "min": [
        0.0
      ],
      "type": "SCALAR"
    },
    {
      "bufferView": 7,
      "byteOffset": 8028,
      "componentType": 5126,
      "count": 149,
      "max": [
        -0.42464709281921387,
        -0.020128965377807617,
        0.006363700143992901
      ],
      "min": [
        -0.42464756965637207,
        -0.020128995180130005,
        0.006363504100590944
      ],
      "type": "VEC3"
    },
    {
      "bufferView": 6,
      "byteOffset": 6704,
      "componentType": 5126,
      "count": 149,
      "max": [
        4.958333492279053
      ],
      "min": [
        0.0
      ],
      "type": "SCALAR"
    },
    {
      "bufferView": 8,
      "byteOffset": 13728,
      "componentType": 5126,
      "count": 149,
      "max": [
        -5.043861772691116e-09,
        -0.4907640218734741,
        6.413384046055626e-09,
        0.8712925314903259
      ],
      "min": [
        -9.386256216714628e-09,
        -0.4907640218734741,
        -4.275590548274977e-09,
        0.8712925314903259
      ],
      "type": "VEC4"
    },
    {
      "bufferView": 6,
      "byteOffset": 7300,
      "componentType": 5126,
      "count": 236,
      "max": [
        4.958333492279053
      ],
      "min": [
        0.0
      ],
      "type": "SCALAR"
    },
    {
      "bufferView": 7,
      "byteOffset": 9816,
      "componentType": 5126,
      "count": 236,
      "max": [
        -0.49794867634773254,
        -0.019402652978897095,
        0.008062869310379028
      ],
      "min": [
        -0.4979487657546997,
        -0.01940266788005829,
        0.00806225836277008
      ],
      "type": "VEC3"
    },
    {
      "bufferView": 6,
      "byteOffset": 8244,
      "componentType": 5126,
      "count": 4,
      "max": [
        4.958333492279053
      ],
      "min": [
        0.0
      ],
      "type": "SCALAR"
    },
    {
      "bufferView": 7,
      "byteOffset": 12648,
      "componentType": 5126,
      "count": 4,
      "max": [
        1.0000001192092896,
        1.0,
        1.0
      ],
      "min": [
        1.0,
        0.9999999403953552,
        0.9999999403953552
      ],
      "type": "VEC3"
    },
    {
      "bufferView": 6,
      "byteOffset": 8260,
      "componentType": 5126,
      "count": 236,
      "max": [
        4.958333492279053
      ],
      "min": [
        0.0
      ],
      "type": "SCALAR"
    },
    {
      "bufferView": 8,
      "byteOffset": 16112,
      "componentType": 5126,
      "count": 236,
      "max": [
        0.02189081907272339,
        0.2027795910835266,
        0.10038138180971146,
        0.9793074131011963
      ],
      "min": [
        -0.011291537433862686,
        0.1751258373260498,
        -0.05597495660185814,
        0.9790326952934265
      ],
      "type": "VEC4"
    },
    {
      "bufferView": 6,
      "byteOffset": 9204,
      "componentType": 5126,
      "count": 225,
      "max": [
        4.958333492279053
      ],
      "min": [
        0.0
      ],
      "type": "SCALAR"
    },
    {
      "bufferView": 7,
      "byteOffset": 12696,
      "componentType": 5126,
      "count": 225,
      "max": [
        -0.35996848344802856,
        -0.003650650382041931,
        -0.4571225643157959
      ],
      "min": [
        -0.3599686324596405,
        -0.003650680184364319,
        -0.4571227431297302
      ],
      "type": "VEC3"
    },
    {
      "bufferView": 6,
      "byteOffset": 10104,
      "componentType": 5126,
      "count": 12,
      "max": [
        4.958333492279053
      ],
      "min": [
        0.0
      ],
      "type": "SCALAR"
    },
    {
      "bufferView": 7,
      "byteOffset": 15396,
      "componentType": 5126,
      "count": 12,
      "max": [
        1.0,
        0.9999998807907104,
        1.0
      ],
      "min": [
        0.9999997615814209,
        0.9999998807907104,
        0.9999999403953552
      ],
      "type": "VEC3"
    },
    {
      "bufferView": 6,
      "byteOffset": 10152,
      "componentType": 5126,
      "count": 236,
      "max": [
        4.958333492279053
      ],
      "min": [
        0.0
      ],
      "type": "SCALAR"
    },
    {
      "bufferView": 8,
      "byteOffset": 19888,
      "componentType": 5126,
      "count": 236,
      "max": [
        0.0052253068424761295,
        -0.45395368337631226,
        0.0035119049716740847,
        0.8910161256790161
      ],
      "min": [
        -0.0020181883592158556,
        -0.46378451585769653,
        -0.009645134210586548,
        0.8859029412269592
      ],
      "type": "VEC4"
    },
    {
      "bufferView": 6,
      "byteOffset": 11096,
      "componentType": 5126,
      "count": 4,
      "max": [
        4.958333492279053
      ],
      "min": [
        0.0
      ],
      "type": "SCALAR"
    },
    {
      "bufferView": 7,
      "byteOffset": 15540,
      "componentType": 5126,
      "count": 4,
      "max": [
        0.2972826361656189,
        0.1555386781692505,
        -0.12243407219648361
      ],
      "min": [
        0.2972826063632965,
        0.1555386632680893,
        -0.12243407219648361
      ],
      "type": "VEC3"
    },
    {
      "bufferView": 6,
      "byteOffset": 11112,
      "componentType": 5126,
      "count": 4,
      "max": [
        4.958333492279053
      ],
      "min": [
        0.0
      ],
      "type": "SCALAR"
    },
    {
      "bufferView": 7,
      "byteOffset": 15588,
      "componentType": 5126,
      "count": 4,
      "max": [
        1.000000238418579,
        1.0,
        1.0
      ],
      "min": [
        1.000000238418579,
        0.9999999403953552,
        1.0
      ],
      "type": "VEC3"
    },
    {
      "bufferView": 6,
      "byteOffset": 11128,
      "componentType": 5126,
      "count": 237,
      "max": [
        4.958333492279053
      ],
      "min": [
        0.0
      ],
      "type": "SCALAR"
    },
    {
      "bufferView": 8,
      "byteOffset": 23664,
      "componentType": 5126,
      "count": 237,
      "max": [
        0.05095284432172775,
        0.08622347563505173,
        0.9999246001243591,
        0.08096282184123993
      ],
      "min": [
        -2.8339318305370398e-05,
        -0.15403512120246887,
        0.9816539287567139,
        -0.10090115666389465
      ],
      "type": "VEC4"
    },
    {
      "bufferView": 6,
      "byteOffset": 12076,
      "componentType": 5126,
      "count": 30,
      "max": [
        4.958333492279053
      ],
      "min": [
        0.0
      ],
      "type": "SCALAR"
    },
    {
      "bufferView": 7,
      "byteOffset": 15636,
      "componentType": 5126,
      "count": 30,
      "max": [
        0.4099692702293396,
        -0.24093468487262726,
        1.1925155263270426e-07
      ],
      "min": [
        0.4099692106246948,
        -0.24093474447727203,
        1.192514105241571e-07
      ],
      "type": "VEC3"
    },
    {
      "bufferView": 6,
      "byteOffset": 12196,
      "componentType": 5126,
      "count": 4,
      "max": [
        4.958333492279053
      ],
      "min": [
        0.0
      ],
      "type": "SCALAR"
    },
    {
      "bufferView": 7,
      "byteOffset": 15996,
      "componentType": 5126,
      "count": 4,
      "max": [
        1.0,
        1.0,
        1.0
      ],
      "min": [
        0.9999999403953552,
        0.9999999403953552,
        1.0
      ],
      "type": "VEC3"
    },
    {
      "bufferView": 6,
      "byteOffset": 12212,
      "componentType": 5126,
      "count": 149,
      "max": [
        4.958333492279053
      ],
      "min": [
        0.0
      ],
      "type": "SCALAR"
    },
    {
      "bufferView": 8,
      "byteOffset": 27456,
      "componentType": 5126,
      "count": 149,
      "max": [
        -2.4638384665820467e-09,
        -3.007928281451022e-11,
        0.008629465475678444,
        0.9999627470970154
      ],
      "min": [
        -2.4638482365446635e-09,
        -3.0089944424993575e-11,
        0.008629463613033295,
        0.9999627470970154
      ],
      "type": "VEC4"
    },
    {
      "bufferView": 6,
      "byteOffset": 12808,
      "componentType": 5126,
      "count": 130,
      "max": [
        4.958333492279053
      ],
      "min": [
        0.0
      ],
      "type": "SCALAR"
    },
    {
      "bufferView": 7,
      "byteOffset": 16044,
      "componentType": 5126,
      "count": 130,
      "max": [
        0.6074852347373962,
        -0.026282042264938354,
        1.7371633020957233e-07
      ],
      "min": [
        0.6074851751327515,
        -0.026282161474227905,
        1.7371633020957233e-07
      ],
      "type": "VEC3"
    },
    {
      "bufferView": 6,
      "byteOffset": 13328,
      "componentType": 5126,
      "count": 4,
      "max": [
        4.958333492279053
      ],
      "min": [
        0.0
      ],
      "type": "SCALAR"
    },
    {
      "bufferView": 7,
      "byteOffset": 17604,
      "componentType": 5126,
      "count": 4,
      "max": [
        1.0,
        1.0,
        1.0
      ],
      "min": [
        1.0,
        0.9999999403953552,
        1.0
      ],
      "type": "VEC3"
    },
    {
      "bufferView": 6,
      "byteOffset": 13344,
      "componentType": 5126,
      "count": 238,
      "max": [
        4.958333492279053
      ],
      "min": [
        0.0
      ],
      "type": "SCALAR"
    },
    {
      "bufferView": 8,
      "byteOffset": 29840,
      "componentType": 5126,
      "count": 238,
      "max": [
        9.014876366420952e-16,
        3.1552061988517413e-15,
        0.056894317269325256,
        0.9999998211860657
      ],
      "min": [
        -6.310763916376593e-15,
        -1.3523066291372117e-15,
        -0.17292749881744385,
        0.9849345684051514
      ],
      "type": "VEC4"
    },
    {
      "bufferView": 6,
      "byteOffset": 14296,
      "componentType": 5126,
      "count": 103,
      "max": [
        4.958333492279053
      ],
      "min": [
        0.0
      ],
      "type": "SCALAR"
    },
    {
      "bufferView": 7,
      "byteOffset": 17652,
      "componentType": 5126,
      "count": 103,
      "max": [
        0.6560211181640625,
        -0.016783833503723145,
        1.8748193042483763e-07
      ],
      "min": [
        0.6560209393501282,
        -0.016783922910690308,
        1.8748193042483763e-07
      ],
      "type": "VEC3"
    },
    {
      "bufferView": 6,
      "byteOffset": 14708,
      "componentType": 5126,
      "count": 8,
      "max": [
        4.958333492279053
      ],
      "min": [
        0.0
      ],
      "type": "SCALAR"
    },
    {
      "bufferView": 7,
      "byteOffset": 18888,
      "componentType": 5126,
      "count": 8,
      "max": [
        1.0,
        1.0,
        1.0
      ],
      "min": [
        0.9999999403953552,
        0.9999998807907104,
        1.0
      ],
      "type": "VEC3"
    },
    {
      "bufferView": 6,
      "byteOffset": 14740,
      "componentType": 5126,
      "count": 237,
      "max": [
        4.958333492279053
      ],
      "min": [
        0.0
      ],
      "type": "SCALAR"
    },
    {
      "bufferView": 8,
      "byteOffset": 33648,
      "componentType": 5126,
      "count": 237,
      "max": [
        6.584199196057669e-14,
        1.3939790619553472e-14,
        0.10529086738824844,
        0.9999998807907104
      ],
      "min": [
        6.391299978408121e-14,
        -6.398763439816263e-15,
        -0.1698685586452484,
        0.985466718673706
      ],
      "type": "VEC4"
    },
    {
      "bufferView": 6,
      "byteOffset": 15688,
      "componentType": 5126,
      "count": 32,
      "max": [
        4.958333492279053
      ],
      "min": [
        0.0
      ],
      "type": "SCALAR"
    },
    {
      "bufferView": 7,
      "byteOffset": 18984,
      "componentType": 5126,
      "count": 32,
      "max": [
        0.8787643313407898,
        0.1735885888338089,
        6.683918627459207e-07
      ],
      "min": [
        0.8787642121315002,
        0.17358842492103577,
        6.683916922156641e-07
      ],
      "type": "VEC3"
    },
    {
      "bufferView": 6,
      "byteOffset": 15816,
      "componentType": 5126,
      "count": 237,
      "max": [
        4.958333492279053
      ],
      "min": [
        0.0
      ],
      "type": "SCALAR"
    },
    {
      "bufferView": 8,
      "byteOffset": 37440,
      "componentType": 5126,
      "count": 237,
      "max": [
        2.003844734588256e-08,
        -2.3783857727721625e-07,
        0.03781150281429291,
        1.0
      ],
      "min": [
        -6.049130973906358e-09,
        -2.3868122411840886e-07,
        -0.07198625802993774,
        0.9974056482315063
      ],
      "type": "VEC4"
    },
    {
      "bufferView": 6,
      "byteOffset": 16764,
      "componentType": 5126,
      "count": 6,
      "max": [
        4.958333492279053
      ],
      "min": [
        0.0
      ],
      "type": "SCALAR"
    },
    {
      "bufferView": 7,
      "byteOffset": 19368,
      "componentType": 5126,
      "count": 6,
      "max": [
        0.8705081939697266,
        0.2708054780960083,
        6.613331038352044e-07
      ],
      "min": [
        0.870508074760437,
        0.2708054184913635,
        6.613329901483667e-07
      ],
      "type": "VEC3"
    },
    {
      "bufferView": 6,
      "byteOffset": 16788,
      "componentType": 5126,
      "count": 12,
      "max": [
        4.958333492279053
      ],
      "min": [
        0.0
      ],
      "type": "SCALAR"
    },
    {
      "bufferView": 7,
      "byteOffset": 19440,
      "componentType": 5126,
      "count": 12,
      "max": [
        0.9999998807907104,
        0.9999998807907104,
        1.0
      ],
      "min": [
        0.9999997615814209,
        0.9999997019767761,
        1.0
      ],
      "type": "VEC3"
    },
    {
      "bufferView": 6,
      "byteOffset": 16836,
      "componentType": 5126,
      "count": 237,
      "max": [
        4.958333492279053
      ],
      "min": [
        0.0
      ],
      "type": "SCALAR"
    },
    {
      "bufferView": 8,
      "byteOffset": 41232,
      "componentType": 5126,
      "count": 237,
      "max": [
        -5.572107220075395e-09,
        5.678230663441752e-10,
        0.09279888868331909,
        0.9999997019767761
      ],
      "min": [
        -5.600965469199082e-09,
        -3.465580877826113e-10,
        -0.07117081433534622,
        0.9956848621368408
      ],
      "type": "VEC4"
    },
    {
      "bufferView": 6,
      "byteOffset": 17784,
      "componentType": 5126,
      "count": 4,
      "max": [
        4.958333492279053
      ],
      "min": [
        0.0
      ],
      "type": "SCALAR"
    },
    {
      "bufferView": 7,
      "byteOffset": 19584,
      "componentType": 5126,
      "count": 4,
      "max": [
        0.9999999403953552,
        0.9999999403953552,
        1.0
      ],
      "min": [
        0.9999998807907104,
        0.9999998807907104,
        1.0
      ],
      "type": "VEC3"
    },
    {
      "bufferView": 6,
      "byteOffset": 17800,
      "componentType": 5126,
      "count": 237,
      "max": [
        4.958333492279053
      ],
      "min": [
        0.0
      ],
      "type": "SCALAR"
    },
    {
      "bufferView": 8,
      "byteOffset": 45024,
      "componentType": 5126,
      "count": 237,
      "max": [
        3.8411023695061886e-08,
        -5.020238447173142e-09,
        0.0917404517531395,
        0.9999997019767761
      ],
      "min": [
        3.382068314294884e-08,
        -1.888836642649494e-08,
        -0.2840626537799835,
        0.9588057398796082
      ],
      "type": "VEC4"
    },
    {
      "bufferView": 6,
      "byteOffset": 18748,
      "componentType": 5126,
      "count": 24,
      "max": [
        4.958333492279053
      ],
      "min": [
        0.0
      ],
      "type": "SCALAR"
    },
    {
      "bufferView": 7,
      "byteOffset": 19632,
      "componentType": 5126,
      "count": 24,
      "max": [
        1.9254511594772339,
        0.4006655812263489,
        -7.478601560251263e-07
      ],
      "min": [
        1.9254506826400757,
        0.4006655514240265,
        -7.478604970856395e-07
      ],
      "type": "VEC3"
    },
    {
      "bufferView": 6,
      "byteOffset": 18844,
      "componentType": 5126,
      "count": 137,
      "max": [
        4.958333492279053
      ],
      "min": [
        0.0
      ],
      "type": "SCALAR"
    },
    {
      "bufferView": 8,
      "byteOffset": 48816,
      "componentType": 5126,
      "count": 137,
      "max": [
        0.05194263905286789,
        0.998650074005127,
        4.411822729366577e-08,
        -5.310574806571822e-07
      ],
      "min": [
        0.05194263905286789,
        0.998650074005127,
        4.411822729366577e-08,
        -5.310574806571822e-07
      ],
      "type": "VEC4"
    },
    {
      "bufferView": 6,
      "byteOffset": 19392,
      "componentType": 5126,
      "count": 4,
      "max": [
        4.958333492279053
      ],
      "min": [
        0.0
      ],
      "type": "SCALAR"
    },
    {
      "bufferView": 7,
      "byteOffset": 19920,
      "componentType": 5126,
      "count": 4,
      "max": [
        0.9999999403953552,
        0.9999999403953552,
        1.0
      ],
      "min": [
        0.9999998807907104,
        0.9999998807907104,
        1.0
      ],
      "type": "VEC3"
    },
    {
      "bufferView": 6,
      "byteOffset": 19408,
      "componentType": 5126,
      "count": 238,
      "max": [
        4.958333492279053
      ],
      "min": [
        0.0
      ],
      "type": "SCALAR"
    },
    {
      "bufferView": 8,
      "byteOffset": 51008,
      "componentType": 5126,
      "count": 238,
      "max": [
        0.051948994398117065,
        1.0,
        6.753398196224225e-08,
        5.352154630600126e-07
      ],
      "min": [
        -0.007512231357395649,
        0.9986497163772583,
        3.5778310092382526e-08,
        5.321398930391297e-07
      ],
      "type": "VEC4"
    },
    {
      "bufferView": 6,
      "byteOffset": 20360,
      "componentType": 5126,
      "count": 38,
      "max": [
        4.958333492279053
      ],
      "min": [
        0.0
      ],
      "type": "SCALAR"
    },
    {
      "bufferView": 7,
      "byteOffset": 19968,
      "componentType": 5126,
      "count": 38,
      "max": [
        0.3134981393814087,
        0.06426310539245605,
        0.8093894720077515
      ],
      "min": [
        0.3134978711605072,
        0.06426304578781128,
        0.8093893527984619
      ],
      "type": "VEC3"
    },
    {
      "bufferView": 6,
      "byteOffset": 20512,
      "componentType": 5126,
      "count": 8,
      "max": [
        4.958333492279053
      ],
      "min": [
        0.0
      ],
      "type": "SCALAR"
    },
    {
      "bufferView": 7,
      "byteOffset": 20424,
      "componentType": 5126,
      "count": 8,
      "max": [
        0.9999999403953552,
        1.0,
        1.0
      ],
      "min": [
        0.9999998211860657,
        0.9999999403953552,
        0.9999999403953552
      ],
      "type": "VEC3"
    },
    {
      "bufferView": 6,
      "byteOffset": 20544,
      "componentType": 5126,
      "count": 149,
      "max": [
        4.958333492279053
      ],
      "min": [
        0.0
      ],
      "type": "SCALAR"
    },
    {
      "bufferView": 8,
      "byteOffset": 54816,
      "componentType": 5126,
      "count": 149,
      "max": [
        -0.012603582814335823,
        0.5255784392356873,
        -0.020392965525388718,
        0.8504073023796082
      ],
      "min": [
        -0.012603593058884144,
        0.5255784392356873,
        -0.020392978563904762,
        0.8504073023796082
      ],
      "type": "VEC4"
    },
    {
      "bufferView": 6,
      "byteOffset": 21140,
      "componentType": 5126,
      "count": 30,
      "max": [
        4.958333492279053
      ],
      "min": [
        0.0
      ],
      "type": "SCALAR"
    },
    {
      "bufferView": 7,
      "byteOffset": 20520,
      "componentType": 5126,
      "count": 30,
      "max": [
        0.5066922307014465,
        0.14582490921020508,
        0.23142124712467194
      ],
      "min": [
        0.506692111492157,
        0.14582479000091553,
        0.23142115771770477
      ],
      "type": "VEC3"
    },
    {
      "bufferView": 6,
      "byteOffset": 21260,
      "componentType": 5126,
      "count": 4,
      "max": [
        4.958333492279053
      ],
      "min": [
        0.0
      ],
      "type": "SCALAR"
    },
    {
      "bufferView": 7,
      "byteOffset": 20880,
      "componentType": 5126,
      "count": 4,
      "max": [
        0.9999998807907104,
        0.9999999403953552,
        0.9999999403953552
      ],
      "min": [
        0.9999998211860657,
        0.9999999403953552,
        0.9999999403953552
      ],
      "type": "VEC3"
    },
    {
      "bufferView": 6,
      "byteOffset": 21276,
      "componentType": 5126,
      "count": 238,
      "max": [
        4.958333492279053
      ],
      "min": [
        0.0
      ],
      "type": "SCALAR"
    },
    {
      "bufferView": 8,
      "byteOffset": 57200,
      "componentType": 5126,
      "count": 238,
      "max": [
        0.024689635261893272,
        0.2353423535823822,
        0.15295110642910004,
        0.9812979102134705
      ],
      "min": [
        -0.011713163927197456,
        0.15765486657619476,
        -0.14727739989757538,
        0.9606461524963379
      ],
      "type": "VEC4"
    },
    {
      "bufferView": 6,
      "byteOffset": 22228,
      "componentType": 5126,
      "count": 40,
      "max": [
        4.958333492279053
      ],
      "min": [
        0.0
      ],
      "type": "SCALAR"
    },
    {
      "bufferView": 7,
      "byteOffset": 20928,
      "componentType": 5126,
      "count": 40,
      "max": [
        0.6931641101837158,
        0.5344032049179077,
        0.11597436666488647
      ],
      "min": [
        0.6931639313697815,
        0.5344031453132629,
        0.11597424745559692
      ],
      "type": "VEC3"
    },
    {
      "bufferView": 6,
      "byteOffset": 22388,
      "componentType": 5126,
      "count": 8,
      "max": [
        4.958333492279053
      ],
      "min": [
        0.0
      ],
      "type": "SCALAR"
    },
    {
      "bufferView": 7,
      "byteOffset": 21408,
      "componentType": 5126,
      "count": 8,
      "max": [
        0.9999998807907104,
        1.0,
        0.9999998211860657
      ],
      "min": [
        0.9999998211860657,
        0.9999998807907104,
        0.9999997019767761
      ],
      "type": "VEC3"
    },
    {
      "bufferView": 6,
      "byteOffset": 22420,
      "componentType": 5126,
      "count": 238,
      "max": [
        4.958333492279053
      ],
      "min": [
        0.0
      ],
      "type": "SCALAR"
    },
    {
      "bufferView": 8,
      "byteOffset": 61008,
      "componentType": 5126,
      "count": 238,
      "max": [
        0.11905417591333389,
        -0.6844879388809204,
        0.16187499463558197,
        0.7225823998451233
      ],
      "min": [
        -0.13892041146755219,
        -0.7055198550224304,
        -0.11415507644414902,
        0.6862530708312988
      ],
      "type": "VEC4"
    },
    {
      "bufferView": 6,
      "byteOffset": 23372,
      "componentType": 5126,
      "count": 4,
      "max": [
        4.958333492279053
      ],
      "min": [
        0.0
      ],
      "type": "SCALAR"
    },
    {
      "bufferView": 7,
      "byteOffset": 21504,
      "componentType": 5126,
      "count": 4,
      "max": [
        1.0000114440917969,
        1.0000015497207642,
        1.0
      ],
      "min": [
        1.0000113248825073,
        1.0000015497207642,
        1.0
      ],
      "type": "VEC3"
    },
    {
      "bufferView": 6,
      "byteOffset": 23388,
      "componentType": 5126,
      "count": 238,
      "max": [
        4.958333492279053
      ],
      "min": [
        0.0
      ],
      "type": "SCALAR"
    },
    {
      "bufferView": 8,
      "byteOffset": 64816,
      "componentType": 5126,
      "count": 238,
      "max": [
        0.002703823382034898,
        0.020194949582219124,
        0.9999658465385437,
        0.02991482987999916
      ],
      "min": [
        -0.03467053920030594,
        -0.011315902695059776,
        0.8930656313896179,
        -0.44884082674980164
      ],
      "type": "VEC4"
    },
    {
      "bufferView": 6,
      "byteOffset": 24340,
      "componentType": 5126,
      "count": 149,
      "max": [
        4.958333492279053
      ],
      "min": [
        0.0
      ],
      "type": "SCALAR"
    },
    {
      "bufferView": 7,
      "byteOffset": 21552,
      "componentType": 5126,
      "count": 149,
      "max": [
        -0.9672496318817139,
        -0.00017027556896209717,
        0.1724235713481903
      ],
      "min": [
        -0.9672496318817139,
        -0.00017030537128448486,
        0.17242339253425598
      ],
      "type": "VEC3"
    },
    {
      "bufferView": 6,
      "byteOffset": 24936,
      "componentType": 5126,
      "count": 6,
      "max": [
        4.958333492279053
      ],
      "min": [
        0.0
      ],
      "type": "SCALAR"
    },
    {
      "bufferView": 7,
      "byteOffset": 23340,
      "componentType": 5126,
      "count": 6,
      "max": [
        0.9999999403953552,
        1.0,
        1.0
      ],
      "min": [
        0.9999999403953552,
        1.0,
        0.9999998807907104
      ],
      "type": "VEC3"
    },
    {
      "bufferView": 6,
      "byteOffset": 24960,
      "componentType": 5126,
      "count": 149,
      "max": [
        4.958333492279053
      ],
      "min": [
        0.0
      ],
      "type": "SCALAR"
    },
    {
      "bufferView": 8,
      "byteOffset": 68624,
      "componentType": 5126,
      "count": 149,
      "max": [
        -0.010361291468143463,
        0.525627851486206,
        -0.01676483452320099,
        0.8504863381385803
      ],
      "min": [
        -0.010361296124756336,
        0.5256277918815613,
        -0.016764862462878227,
        0.8504862785339355
      ],
      "type": "VEC4"
    },
    {
      "bufferView": 6,
      "byteOffset": 25556,
      "componentType": 5126,
      "count": 48,
      "max": [
        4.958333492279053
      ],
      "min": [
        0.0
      ],
      "type": "SCALAR"
    },
    {
      "bufferView": 7,
      "byteOffset": 23412,
      "componentType": 5126,
      "count": 48,
      "max": [
        -0.48188909888267517,
        0.15785135328769684,
        0.21310894191265106
      ],
      "min": [
        -0.48188912868499756,
        0.1578511893749237,
        0.21310874819755554
      ],
      "type": "VEC3"
    },
    {
      "bufferView": 6,
      "byteOffset": 25748,
      "componentType": 5126,
      "count": 16,
      "max": [
        4.958333492279053
      ],
      "min": [
        0.0
      ],
      "type": "SCALAR"
    },
    {
      "bufferView": 7,
      "byteOffset": 23988,
      "componentType": 5126,
      "count": 16,
      "max": [
        0.9999999403953552,
        0.9999999403953552,
        1.0
      ],
      "min": [
        0.9999999403953552,
        0.9999997615814209,
        0.9999997615814209
      ],
      "type": "VEC3"
    },
    {
      "bufferView": 6,
      "byteOffset": 25812,
      "componentType": 5126,
      "count": 238,
      "max": [
        4.958333492279053
      ],
      "min": [
        0.0
      ],
      "type": "SCALAR"
    },
    {
      "bufferView": 8,
      "byteOffset": 71008,
      "componentType": 5126,
      "count": 238,
      "max": [
        0.0199531689286232,
        0.24221590161323547,
        0.1502411663532257,
        0.9808720350265503
      ],
      "min": [
        -0.01657460443675518,
        0.15688173472881317,
        -0.16560271382331848,
        0.9560579061508179
      ],
      "type": "VEC4"
    },
    {
      "bufferView": 6,
      "byteOffset": 26764,
      "componentType": 5126,
      "count": 28,
      "max": [
        4.958333492279053
      ],
      "min": [
        0.0
      ],
      "type": "SCALAR"
    },
    {
      "bufferView": 7,
      "byteOffset": 24180,
      "componentType": 5126,
      "count": 28,
      "max": [
        -0.24274130165576935,
        0.29294487833976746,
        -0.6396837830543518
      ],
      "min": [
        -0.2427414357662201,
        0.29294484853744507,
        -0.6396840214729309
      ],
      "type": "VEC3"
    },
    {
      "bufferView": 6,
      "byteOffset": 26876,
      "componentType": 5126,
      "count": 16,
      "max": [
        4.958333492279053
      ],
      "min": [
        0.0
      ],
      "type": "SCALAR"
    },
    {
      "bufferView": 7,
      "byteOffset": 24516,
      "componentType": 5126,
      "count": 16,
      "max": [
        1.0,
        1.0,
        1.0
      ],
      "min": [
        0.9999998211860657,
        0.9999997615814209,
        0.9999998211860657
      ],
      "type": "VEC3"
    },
    {
      "bufferView": 6,
      "byteOffset": 26940,
      "componentType": 5126,
      "count": 238,
      "max": [
        4.958333492279053
      ],
      "min": [
        0.0
      ],
      "type": "SCALAR"
    },
    {
      "bufferView": 8,
      "byteOffset": 74816,
      "componentType": 5126,
      "count": 238,
      "max": [
        0.013731727376580238,
        0.035690147429704666,
        0.21698428690433502,
        0.9996809959411621
      ],
      "min": [
        -0.01928967982530594,
        -0.0007285160245373845,
        -0.16539984941482544,
        0.976131796836853
      ],
      "type": "VEC4"
    },
    {
      "bufferView": 6,
      "byteOffset": 27892,
      "componentType": 5126,
      "count": 4,
      "max": [
        4.958333492279053
      ],
      "min": [
        0.0
      ],
      "type": "SCALAR"
    },
    {
      "bufferView": 7,
      "byteOffset": 24708,
      "componentType": 5126,
      "count": 4,
      "max": [
        1.0000094175338745,
        1.0000017881393433,
        1.0
      ],
      "min": [
        1.000009298324585,
        1.0000016689300537,
        0.9999999403953552
      ],
      "type": "VEC3"
    },
    {
      "bufferView": 6,
      "byteOffset": 27908,
      "componentType": 5126,
      "count": 238,
      "max": [
        4.958333492279053
      ],
      "min": [
        0.0
      ],
      "type": "SCALAR"
    },
    {
      "bufferView": 8,
      "byteOffset": 78624,
      "componentType": 5126,
      "count": 238,
      "max": [
        0.7043402194976807,
        -0.06504437327384949,
        0.7254490852355957,
        0.034477077424526215
      ],
      "min": [
        0.5507789254188538,
        -0.4125857949256897,
        0.6357473134994507,
        -0.3450697958469391
      ],
      "type": "VEC4"
    },
    {
      "bufferView": 6,
      "byteOffset": 28860,
      "componentType": 5126,
      "count": 74,
      "max": [
        1.5416666269302368
      ],
      "min": [
        0.0
      ],
      "type": "SCALAR"
    },
    {
      "bufferView": 7,
      "byteOffset": 24756,
      "componentType": 5126,
      "count": 74,
      "max": [
        -5737.68408203125,
        3063.083740234375,
        0.00010295916581526399
      ],
      "min": [
        -5737.68408203125,
        -902.7776489257813,
        0.00010295916581526399
      ],
      "type": "VEC3"
    }
  ],
  "animations": [
    {
      "channels": [
        {
          "sampler": 0,
          "target": {
            "node": 30,
            "path": "translation"
          }
        },
        {
          "sampler": 1,
          "target": {
            "node": 30,
            "path": "scale"
          }
        },
        {
          "sampler": 2,
          "target": {
            "node": 30,
            "path": "rotation"
          }
        },
        {
          "sampler": 3,
          "target": {
            "node": 29,
            "path": "translation"
          }
        },
        {
          "sampler": 4,
          "target": {
            "node": 29,
            "path": "scale"
          }
        },
        {
          "sampler": 5,
          "target": {
            "node": 29,
            "path": "rotation"
          }
        },
        {
          "sampler": 6,
          "target": {
            "node": 28,
            "path": "translation"
          }
        },
        {
          "sampler": 7,
          "target": {
            "node": 28,
            "path": "scale"
          }
        },
        {
          "sampler": 8,
          "target": {
            "node": 28,
            "path": "rotation"
          }
        },
        {
          "sampler": 9,
          "target": {
            "node": 27,
            "path": "translation"
          }
        },
        {
          "sampler": 10,
          "target": {
            "node": 27,
            "path": "scale"
          }
        },
        {
          "sampler": 11,
          "target": {
            "node": 27,
            "path": "rotation"
          }
        },
        {
          "sampler": 12,
          "target": {
            "node": 35,
            "path": "translation"
          }
        },
        {
          "sampler": 13,
          "target": {
            "node": 35,
            "path": "rotation"
          }
        },
        {
          "sampler": 14,
          "target": {
            "node": 34,
            "path": "translation"
          }
        },
        {
          "sampler": 15,
          "target": {
            "node": 34,
            "path": "scale"
          }
        },
        {
          "sampler": 16,
          "target": {
            "node": 34,
            "path": "rotation"
          }
        },
        {
          "sampler": 17,
          "target": {
            "node": 33,
            "path": "translation"
          }
        },
        {
          "sampler": 18,
          "target": {
            "node": 33,
            "path": "scale"
          }
        },
        {
          "sampler": 19,
          "target": {
            "node": 33,
            "path": "rotation"
          }
        },
        {
          "sampler": 20,
          "target": {
            "node": 32,
            "path": "translation"
          }
        },
        {
          "sampler": 21,
          "target": {
            "node": 32,
            "path": "scale"
          }
        },
        {
          "sampler": 22,
          "target": {
            "node": 32,
            "path": "rotation"
          }
        },
        {
          "sampler": 23,
          "target": {
            "node": 26,
            "path": "translation"
          }
        },
        {
          "sampler": 24,
          "target": {
            "node": 26,
            "path": "scale"
          }
        },
        {
          "sampler": 25,
          "target": {
            "node": 26,
            "path": "rotation"
          }
        },
        {
          "sampler": 26,
          "target": {
            "node": 25,
            "path": "translation"
          }
        },
        {
          "sampler": 27,
          "target": {
            "node": 25,
            "path": "scale"
          }
        },
        {
          "sampler": 28,
          "target": {
            "node": 25,
            "path": "rotation"
          }
        },
        {
          "sampler": 29,
          "target": {
            "node": 24,
            "path": "translation"
          }
        },
        {
          "sampler": 30,
          "target": {
            "node": 24,
            "path": "scale"
          }
        },
        {
          "sampler": 31,
          "target": {
            "node": 24,
            "path": "rotation"
          }
        },
        {
          "sampler": 32,
          "target": {
            "node": 23,
            "path": "translation"
          }
        },
        {
          "sampler": 33,
          "target": {
            "node": 23,
            "path": "rotation"
          }
        },
        {
          "sampler": 34,
          "target": {
            "node": 22,
            "path": "translation"
          }
        },
        {
          "sampler": 35,
          "target": {
            "node": 22,
            "path": "scale"
          }
        },
        {
          "sampler": 36,
          "target": {
            "node": 22,
            "path": "rotation"
          }
        },
        {
          "sampler": 37,
          "target": {
            "node": 21,
            "path": "scale"
          }
        },
        {
          "sampler": 38,
          "target": {
            "node": 21,
            "path": "rotation"
          }
        },
        {
          "sampler": 39,
          "target": {
            "node": 38,
            "path": "translation"
          }
        },
        {
          "sampler": 40,
          "target": {
            "node": 38,
            "path": "rotation"
          }
        },
        {
          "sampler": 41,
          "target": {
            "node": 37,
            "path": "scale"
          }
        },
        {
          "sampler": 42,
          "target": {
            "node": 37,
            "path": "rotation"
          }
        },
        {
          "sampler": 43,
          "target": {
            "node": 43,
            "path": "translation"
          }
        },
        {
          "sampler": 44,
          "target": {
            "node": 43,
            "path": "scale"
          }
        },
        {
          "sampler": 45,
          "target": {
            "node": 43,
            "path": "rotation"
          }
        },
        {
          "sampler": 46,
          "target": {
            "node": 42,
            "path": "translation"
          }
        },
        {
          "sampler": 47,
          "target": {
            "node": 42,
            "path": "scale"
          }
        },
        {
          "sampler": 48,
          "target": {
            "node": 42,
            "path": "rotation"
          }
        },
        {
          "sampler": 49,
          "target": {
            "node": 41,
            "path": "translation"
          }
        },
        {
          "sampler": 50,
          "target": {
            "node": 41,
            "path": "scale"
          }
        },
        {
          "sampler": 51,
          "target": {
            "node": 41,
            "path": "rotation"
          }
        },
        {
          "sampler": 52,
          "target": {
            "node": 40,
            "path": "scale"
          }
        },
        {
          "sampler": 53,
          "target": {
            "node": 40,
            "path": "rotation"
          }
        },
        {
          "sampler": 54,
          "target": {
            "node": 48,
            "path": "translation"
          }
        },
        {
          "sampler": 55,
          "target": {
            "node": 48,
            "path": "scale"
          }
        },
        {
          "sampler": 56,
          "target": {
            "node": 48,
            "path": "rotation"
          }
        },
        {
          "sampler": 57,
          "target": {
            "node": 47,
            "path": "translation"
          }
        },
        {
          "sampler": 58,
          "target": {
            "node": 47,
            "path": "scale"
          }
        },
        {
          "sampler": 59,
          "target": {
            "node": 47,
            "path": "rotation"
          }
        },
        {
          "sampler": 60,
          "target": {
            "node": 46,
            "path": "translation"
          }
        },
        {
          "sampler": 61,
          "target": {
            "node": 46,
            "path": "scale"
          }
        },
        {
          "sampler": 62,
          "target": {
            "node": 46,
            "path": "rotation"
          }
        },
        {
          "sampler": 63,
          "target": {
            "node": 45,
            "path": "scale"
          }
        },
        {
          "sampler": 64,
          "target": {
            "node": 45,
            "path": "rotation"
          }
        }
      ],
      "name": "Armature.001|Armature.001|Take 001|BaseLayer",
      "samplers": [
        {
          "input": 67,
          "interpolation": "LINEAR",
          "output": 68
        },
        {
          "input": 69,
          "interpolation": "LINEAR",
          "output": 70
        },
        {
          "input": 71,
          "interpolation": "LINEAR",
          "output": 72
        },
        {
          "input": 73,
          "interpolation": "LINEAR",
          "output": 74
        },
        {
          "input": 75,
          "interpolation": "LINEAR",
          "output": 76
        },
        {
          "input": 77,
          "interpolation": "LINEAR",
          "output": 78
        },
        {
          "input": 79,
          "interpolation": "LINEAR",
          "output": 80
        },
        {
          "input": 81,
          "interpolation": "LINEAR",
          "output": 82
        },
        {
          "input": 83,
          "interpolation": "LINEAR",
          "output": 84
        },
        {
          "input": 85,
          "interpolation": "LINEAR",
          "output": 86
        },
        {
          "input": 87,
          "interpolation": "LINEAR",
          "output": 88
        },
        {
          "input": 89,
          "interpolation": "LINEAR",
          "output": 90
        },
        {
          "input": 91,
          "interpolation": "LINEAR",
          "output": 92
        },
        {
          "input": 93,
          "interpolation": "LINEAR",
          "output": 94
        },
        {
          "input": 95,
          "interpolation": "LINEAR",
          "output": 96
        },
        {
          "input": 97,
          "interpolation": "LINEAR",
          "output": 98
        },
        {
          "input": 99,
          "interpolation": "LINEAR",
          "output": 100
        },
        {
          "input": 101,
          "interpolation": "LINEAR",
          "output": 102
        },
        {
          "input": 103,
          "interpolation": "LINEAR",
          "output": 104
        },
        {
          "input": 105,
          "interpolation": "LINEAR",
          "output": 106
        },
        {
          "input": 107,
          "interpolation": "LINEAR",
          "output": 108
        },
        {
          "input": 109,
          "interpolation": "LINEAR",
          "output": 110
        },
        {
          "input": 111,
          "interpolation": "LINEAR",
          "output": 112
        },
        {
          "input": 113,
          "interpolation": "LINEAR",
          "output": 114
        },
        {
          "input": 115,
          "interpolation": "LINEAR",
          "output": 116
        },
        {
          "input": 117,
          "interpolation": "LINEAR",
          "output": 118
        },
        {
          "input": 119,
          "interpolation": "LINEAR",
          "output": 120
        },
        {
          "input": 121,
          "interpolation": "LINEAR",
          "output": 122
        },
        {
          "input": 123,
          "interpolation": "LINEAR",
          "output": 124
        },
        {
          "input": 125,
          "interpolation": "LINEAR",
          "output": 126
        },
        {
          "input": 127,
          "interpolation": "LINEAR",
          "output": 128
        },
        {
          "input": 129,
          "interpolation": "LINEAR",
          "output": 130
        },
        {
          "input": 131,
          "interpolation": "LINEAR",
          "output": 132
        },
        {
          "input": 133,
          "interpolation": "LINEAR",
          "output": 134
        },
        {
          "input": 135,
          "interpolation": "LINEAR",
          "output": 136
        },
        {
          "input": 137,
          "interpolation": "LINEAR",
          "output": 138
        },
        {
          "input": 139,
          "interpolation": "LINEAR",
          "output": 140
        },
        {
          "input": 141,
          "interpolation": "LINEAR",
          "output": 142
        },
        {
          "input": 143,
          "interpolation": "LINEAR",
          "output": 144
        },
        {
          "input": 145,
          "interpolation": "LINEAR",
          "output": 146
        },
        {
          "input": 147,
          "interpolation": "LINEAR",
          "output": 148
        },
        {
          "input": 149,
          "interpolation": "LINEAR",
          "output": 150
        },
        {
          "input": 151,
          "interpolation": "LINEAR",
          "output": 152
        },
        {
          "input": 153,
          "interpolation": "LINEAR",
          "output": 154
        },
        {
          "input": 155,
          "interpolation": "LINEAR",
          "output": 156
        },
        {
          "input": 157,
          "interpolation": "LINEAR",
          "output": 158
        },
        {
          "input": 159,
          "interpolation": "LINEAR",
          "output": 160
        },
        {
          "input": 161,
          "interpolation": "LINEAR",
          "output": 162
        },
        {
          "input": 163,
          "interpolation": "LINEAR",
          "output": 164
        },
        {
          "input": 165,
          "interpolation": "LINEAR",
          "output": 166
        },
        {
          "input": 167,
          "interpolation": "LINEAR",
          "output": 168
        },
        {
          "input": 169,
          "interpolation": "LINEAR",
          "output": 170
        },
        {
          "input": 171,
          "interpolation": "LINEAR",
          "output": 172
        },
        {
          "input": 173,
          "interpolation": "LINEAR",
          "output": 174
        },
        {
          "input": 175,
          "interpolation": "LINEAR",
          "output": 176
        },
        {
          "input": 177,
          "interpolation": "LINEAR",
          "output": 178
        },
        {
          "input": 179,
          "interpolation": "LINEAR",
          "output": 180
        },
        {
          "input": 181,
          "interpolation": "LINEAR",
          "output": 182
        },
        {
          "input": 183,
          "interpolation": "LINEAR",
          "output": 184
        },
        {
          "input": 185,
          "interpolation": "LINEAR",
          "output": 186
        },
        {
          "input": 187,
          "interpolation": "LINEAR",
          "output": 188
        },
        {
          "input": 189,
          "interpolation": "LINEAR",
          "output": 190
        },
        {
          "input": 191,
          "interpolation": "LINEAR",
          "output": 192
        },
        {
          "input": 193,
          "interpolation": "LINEAR",
          "output": 194
        },
        {
          "input": 195,
          "interpolation": "LINEAR",
          "output": 196
        }
      ]
    },
    {
      "channels": [
        {
          "sampler": 0,
          "target": {
            "node": 5,
            "path": "translation"
          }
        }
      ],
      "name": "Armature.001|Cube.006Action",
      "samplers": [
        {
          "input": 197,
          "interpolation": "LINEAR",
          "output": 198
        }
      ]
    }
  ],
  "asset": {
    "extras": {
      "author": "object (https://sketchfab.com/titaniumammas69)",
      "license": "CC-BY-4.0 (http://creativecommons.org/licenses/by/4.0/)",
      "source": "https://sketchfab.com/3d-models/bloop-857501773f1b4f8d936abf517dd33b5a",
      "title": "Bloop"
    },
    "generator": "Sketchfab-15.27.0",
    "version": "2.0"
  },
  "bufferViews": [
    {
      "buffer": 0,
      "byteLength": 4012720,
      "byteStride": 8,
      "name": "shortBufferViews",
      "target": 34962
    },
    {
      "buffer": 0,
      "byteLength": 4961568,
      "byteOffset": 4012720,
      "name": "floatBufferViews",
      "target": 34963
    },
    {
      "buffer": 0,
      "byteLength": 4012720,
      "byteOffset": 8974288,
      "byteStride": 8,
      "name": "floatBufferViews",
      "target": 34962
    },
    {
      "buffer": 0,
      "byteLength": 12038160,
      "byteOffset": 12987008,
      "byteStride": 12,
      "name": "floatBufferViews",
      "target": 34962
    },
    {
      "buffer": 0,
      "byteLength": 8025440,
      "byteOffset": 25025168,
      "byteStride": 16,
      "name": "floatBufferViews",
      "target": 34962
    },
    {
      "buffer": 0,
      "byteLength": 1984,
      "byteOffset": 33050608,
      "name": "floatBufferViews"
    },
    {
      "buffer": 0,
      "byteLength": 29156,
      "byteOffset": 33052592,
      "name": "floatBufferViews"
    },
    {
      "buffer": 0,
      "byteLength": 25644,
      "byteOffset": 33081748,
      "byteStride": 12,
      "name": "floatBufferViews"
    },
    {
      "buffer": 0,
      "byteLength": 82432,
      "byteOffset": 33107392,
      "byteStride": 16,
      "name": "floatBufferViews"
    }
  ],
  "buffers": [
    {
      "byteLength": 33189824,
      "uri": "scene.bin"
    }
  ],
  "extensionsUsed": [
    "KHR_materials_specular"
  ],
  "images": [
    {
      "uri": "textures/Bloopbody_baseColor.png"
    },
    {
      "uri": "textures/Bloopbody_metallicRoughness.png"
    },
    {
      "uri": "textures/mouth_baseColor.png"
    }
  ],
  "materials": [
    {
      "doubleSided": true,
      "name": "Bloopbody",
      "pbrMetallicRoughness": {
        "baseColorTexture": {
          "index": 0
        },
        "metallicFactor": 0.0,
        "metallicRoughnessTexture": {
          "index": 1
        }
      }
    },
    {
      "doubleSided": true,
      "name": "mouth",
      "pbrMetallicRoughness": {
        "baseColorTexture": {
          "index": 2
        },
        "metallicFactor": 0.0,
        "metallicRoughnessTexture": {
          "index": 1
        }
      }
    },
    {
      "doubleSided": true,
      "name": "bloopeye",
      "pbrMetallicRoughness": {
        "baseColorFactor": [
          0.00275136,
          0.00275136,
          0.00275136,
          1.0
        ],
        "metallicFactor": 0.0,
        "roughnessFactor": 0.30666455364435397
      }
    },
    {
      "doubleSided": true,
      "extensions": {
        "KHR_materials_specular": {
          "specularColorFactor": [
            1.0,
            1.0,
            1.0
          ],
          "specularFactor": 0.4987988007381431
        }
      },
      "name": "bloopfin",
      "pbrMetallicRoughness": {
        "baseColorTexture": {
          "index": 2
        },
        "metallicFactor": 0.0,
        "metallicRoughnessTexture": {
          "index": 1
        }
      }
    },
    {
      "doubleSided": true,
      "extensions": {
        "KHR_materials_specular": {
          "specularColorFactor": [
            1.0,
            1.0,
            1.0
          ],
          "specularFactor": 0.6142568044084923
        }
      },
      "name": "toothtop",
      "pbrMetallicRoughness": {
        "baseColorFactor": [
          0.02112082978390501,
          0.02112082978390501,
          0.02112082978390501,
          1.0
        ],
        "metallicFactor": 0.0,
        "roughnessFactor": 0.808040377318484
      }
    },
    {
      "doubleSided": true,
      "name": "toothgum",
      "pbrMetallicRoughness": {
        "baseColorTexture": {
          "index": 0
        },
        "metallicFactor": 0.0,
        "roughnessFactor": 0.7883398951148328
      }
    }
  ],
  "meshes": [
    {
      "name": "Cube_Bloopbody_0",
      "primitives": [
        {
          "attributes": {
            "JOINTS_0": 45,
            "NORMAL": 1,
            "POSITION": 0,
            "TEXCOORD_0": 2,
            "WEIGHTS_0": 46
          },
          "indices": 3,
          "material": 0,
          "mode": 4
        }
      ]
    },
    {
      "name": "Cube_Bloopbody_0",
      "primitives": [
        {
          "attributes": {
            "JOINTS_0": 47,
            "NORMAL": 5,
            "POSITION": 4,
            "TEXCOORD_0": 6,
            "WEIGHTS_0": 48
          },
          "indices": 7,
          "material": 0,
          "mode": 4
        }
      ]
    },
    {
      "name": "Cube_mouth_0",
      "primitives": [
        {
          "attributes": {
            "JOINTS_0": 49,
            "NORMAL": 9,
            "POSITION": 8,
            "TEXCOORD_0": 10,
            "WEIGHTS_0": 50
          },
          "indices": 11,
          "material": 1,
          "mode": 4
        }
      ]
    },
    {
      "name": "Cube_bloopeye_0",
      "primitives": [
        {
          "attributes": {
            "JOINTS_0": 51,
            "NORMAL": 13,
            "POSITION": 12,
            "TEXCOORD_0": 14,
            "WEIGHTS_0": 52
          },
          "indices": 15,
          "material": 2,
          "mode": 4
        }
      ]
    },
    {
      "name": "Cube_bloopfin_0",
      "primitives": [
        {
          "attributes": {
            "JOINTS_0": 53,
            "NORMAL": 17,
            "POSITION": 16,
            "TEXCOORD_0": 18,
            "WEIGHTS_0": 54
          },
          "indices": 19,
          "material": 3,
          "mode": 4
        }
      ]
    },
    {
      "name": "Cube_toothtop_0",
      "primitives": [
        {
          "attributes": {
            "JOINTS_0": 55,
            "NORMAL": 21,
            "POSITION": 20,
            "TEXCOORD_0": 22,
            "WEIGHTS_0": 56
          },
          "indices": 23,
          "material": 4,
          "mode": 4
        }
      ]
    },
    {
      "name": "Cube_toothtop_0",
      "primitives": [
        {
          "attributes": {
            "JOINTS_0": 57,
            "NORMAL": 25,
            "POSITION": 24,
            "TEXCOORD_0": 26,
            "WEIGHTS_0": 58
          },
          "indices": 27,
          "material": 4,
          "mode": 4
        }
      ]
    },
    {
      "name": "Cube_toothtop_0",
      "primitives": [
        {
          "attributes": {
            "JOINTS_0": 59,
            "NORMAL": 29,
            "POSITION": 28,
            "TEXCOORD_0": 30,
            "WEIGHTS_0": 60
          },
          "indices": 31,
          "material": 4,
          "mode": 4
        }
      ]
    },
    {
      "name": "Cube_toothgum_0",
      "primitives": [
        {
          "attributes": {
            "JOINTS_0": 61,
            "NORMAL": 33,
            "POSITION": 32,
            "TEXCOORD_0": 34,
            "WEIGHTS_0": 62
          },
          "indices": 35,
          "material": 5,
          "mode": 4
        }
      ]
    },
    {
      "name": "Cube_toothgum_0",
      "primitives": [
        {
          "attributes": {
            "JOINTS_0": 63,
            "NORMAL": 37,
            "POSITION": 36,
            "TEXCOORD_0": 38,
            "WEIGHTS_0": 64
          },
          "indices": 39,
          "material": 5,
          "mode": 4
        }
      ]
    },
    {
      "name": "Cube_toothgum_0",
      "primitives": [
        {
          "attributes": {
            "JOINTS_0": 65,
            "NORMAL": 41,
            "POSITION": 40,
            "TEXCOORD_0": 42,
            "WEIGHTS_0": 66
          },
          "indices": 43,
          "material": 5,
          "mode": 4
        }
      ]
    }
  ],
  "nodes": [
    {
      "children": [
        1
      ],
      "matrix": [
        1.0,
        0.0,
        0.0,
        0.0,
        0.0,
        2.220446049250313e-16,
        -1.0,
        0.0,
        0.0,
        1.0,
        2.220446049250313e-16,
        0.0,
        0.0,
        0.0,
        0.0,
        1.0
      ],
      "name": "Sketchfab_model"
    },
    {
      "children": [
        2
      ],
      "matrix": [
        0.009999999776482582,
        0.0,
        0.0,
        0.0,
        0.0,
        0.0,
        0.009999999776482582,
        0.0,
        0.0,
        -0.009999999776482582,
        0.0,
        0.0,
        0.0,
        0.0,
        0.0,
        1.0
      ],
      "name": "2e9101f514a44987b56a6c3cbcfd9932.fbx"
    },
    {
      "children": [
        3
      ],
      "name": "Object_2"
    },
    {
      "children": [
        4,
        5
      ],
      "name": "RootNode"
    },
    {
      "name": "Cube",
      "rotation": [
        -0.7071068286895752,
        2.4379370050509053e-15,
        2.34594245071551e-16,
        0.7071067094802856
      ],
      "scale": [
        100.0,
        100.0,
        100.0
      ],
      "translation": [
        0.0008791685104370117,
        0.00019073486328125,
        -2.480515792768756e-11
      ]
    },
    {
      "children": [
        6
      ],
      "name": "Armature.001",
      "rotation": [
        -0.05109056830406189,
        0.7052585482597351,
        0.05109056085348129,
        0.7052587270736694
      ],
      "scale": [
        895.3360595703125,
        1279.052490234375,
        1590.5181884765625
      ],
      "translation": [
        -5737.68408203125,
        -548.2484130859375,
        0.00010295916581526399
      ]
    },
    {
      "children": [
        7,
        9,
        10,
        11,
        12,
        13,
        14,
        15,
        16,
        17,
        18,
        19,
        8
      ],
      "name": "Object_6"
    },
    {
      "children": [
        20
      ],
      "name": "_rootJoint"
    },
    {
      "matrix": [
        99.99999701372431,
        -3.333192664811241e-07,
        2.954095437235696e-13,
        0.0,
        2.954095643816586e-13,
        -1.493079966703888e-13,
        -100.00000417522641,
        0.0,
        3.333192760202537e-07,
        99.99999987558388,
        -1.4930798926602195e-13,
        0.0,
        0.0011365378354639688,
        0.00022972358715378505,
        -1.6503367682857428e-10,
        1.0
      ],
      "name": "Object_8"
    },
    {
      "mesh": 0,
      "name": "Object_9",
      "skin": 0
    },
    {
      "mesh": 1,
      "name": "Object_10",
      "skin": 0
    },
    {
      "mesh": 2,
      "name": "Object_11",
      "skin": 0
    },
    {
      "mesh": 3,
      "name": "Object_12",
      "skin": 0
    },
    {
      "mesh": 4,
      "name": "Object_13",
      "skin": 0
    },
    {
      "mesh": 5,
      "name": "Object_14",
      "skin": 0
    },
    {
      "mesh": 6,
      "name": "Object_15",
      "skin": 0
    },
    {
      "mesh": 7,
      "name": "Object_16",
      "skin": 0
    },
    {
      "mesh": 8,
      "name": "Object_17",
      "skin": 0
    },
    {
      "mesh": 9,
      "name": "Object_18",
      "skin": 0
    },
    {
      "mesh": 10,
      "name": "Object_19",
      "skin": 0
    },
    {
      "children": [
        21,
        37,
        40,
        45
      ],
      "name": "w_root_01",
      "rotation": [
        0.04989945515990257,
        0.7053442001342773,
        0.04989945515990257,
        0.7053436636924744
      ],
      "scale": [
        1.0,
        0.9999999403953552,
        1.0
      ],
      "translation": [
        2.9749108421128767e-07,
        0.5326135158538818,
        2.0624256134033203
      ]
    },
    {
      "children": [
        22
      ],
      "name": "w_rug1_02",
      "rotation": [
        3.840831297452496e-08,
        -5.04094810338529e-09,
        0.09017579257488251,
        0.9959259629249573
      ],
      "scale": [
        0.9999999403953552,
        0.9999999403953552,
        1.0
      ],
      "translation": [
        0.9053808450698853,
        -0.06681647896766663,
        8.031319111978519e-07
      ]
    },
    {
      "children": [
        23
      ],
      "name": "w_rug2_03",
      "rotation": [
        -5.6005577953044394e-09,
        6.77480363475702e-11,
        0.01915636472404003,
        0.9998164772987366
      ],
      "scale": [
        0.9999998807907104,
        0.9999998807907104,
        1.0
      ],
      "translation": [
        0.8705081939697266,
        0.2708054780960083,
        6.613331038352044e-07
      ]
    },
    {
      "children": [
        24
      ],
      "name": "w_rug3_04",
      "rotation": [
        8.68127703057553e-09,
        -2.3852334152252297e-07,
        -0.009699882939457893,
        0.9999529719352722
      ],
      "translation": [
        0.8787642121315002,
        0.17358842492103577,
        6.683916922156641e-07
      ]
    },
    {
      "children": [
        25
      ],
      "name": "joint2_05",
      "rotation": [
        6.584200551310385e-14,
        4.448783480953721e-15,
        -0.0595354400575161,
        0.9982262849807739
      ],
      "scale": [
        0.9999999403953552,
        0.9999998807907104,
        1.0
      ],
      "translation": [
        0.6560211181640625,
        -0.016783833503723145,
        1.8748193042483763e-07
      ]
    },
    {
      "children": [
        26
      ],
      "name": "joint1_06",
      "rotation": [
        9.014875307629768e-16,
        3.1552061988517413e-15,
        -0.17119838297367096,
        0.9852365851402283
      ],
      "scale": [
        1.0,
        0.9999999403953552,
        1.0
      ],
      "translation": [
        0.6074852347373962,
        -0.026282042264938354,
        1.7371633020957233e-07
      ]
    },
    {
      "children": [
        27,
        32
      ],
      "name": "w_rug4_07",
      "rotation": [
        -2.4638386886266517e-09,
        -3.008994789444053e-11,
        0.00862946454435587,
        0.9999628663063049
      ],
      "translation": [
        0.4099692106246948,
        -0.24093468487262726,
        1.192514105241571e-07
      ]
    },
    {
      "children": [
        28
      ],
      "name": "w_L_staart1_08",
      "rotation": [
        0.08598253130912781,
        -0.01718636229634285,
        -0.08096335083246231,
        0.9928527474403381
      ],
      "scale": [
        0.9999998807907104,
        1.0,
        1.0
      ],
      "translation": [
        0.2972831726074219,
        0.15553733706474304,
        0.1224336177110672
      ]
    },
    {
      "children": [
        29
      ],
      "name": "w_L_staart2_09",
      "rotation": [
        -0.002015003003180027,
        -0.4539544880390167,
        0.0035060052759945393,
        0.8910157084465027
      ],
      "scale": [
        1.0,
        1.0,
        0.9999999403953552
      ],
      "translation": [
        0.3599696457386017,
        0.003650873899459839,
        0.4571231007575989
      ]
    },
    {
      "children": [
        30
      ],
      "name": "w_L_staart3_010",
      "rotation": [
        -0.011273141950368881,
        0.19543081521987915,
        -0.05583478510379791,
        0.9790619015693665
      ],
      "scale": [
        1.0,
        0.9999998211860657,
        0.9999999403953552
      ],
      "translation": [
        0.4979472756385803,
        0.01940189301967621,
        -0.008060246706008911
      ]
    },
    {
      "children": [
        31
      ],
      "name": "w_L_staart4_011",
      "rotation": [
        -2.288109079984224e-08,
        -0.4907640516757965,
        1.389566861575986e-08,
        0.8712925314903259
      ],
      "scale": [
        1.0,
        1.0,
        1.0000001192092896
      ],
      "translation": [
        0.42464911937713623,
        0.020127415657043457,
        -0.006367990747094154
      ]
    },
    {
      "name": "w_L_staart4_end_026",
      "rotation": [
        5.605325231750058e-17,
        8.673617379884035e-18,
        -1.3877787807814457e-17,
        1.0
      ],
      "translation": [
        0.0,
        0.4147753417491913,
        -8.881784197001252e-16
      ]
    },
    {
      "children": [
        33
      ],
      "name": "w_R_staart1_012",
      "rotation": [
        0.017186667770147324,
        0.08598247915506363,
        0.9928528070449829,
        0.08096287399530411
      ],
      "scale": [
        1.000000238418579,
        0.9999999403953552,
        1.0
      ],
      "translation": [
        0.2972826361656189,
        0.1555386781692505,
        -0.12243407219648361
      ]
    },
    {
      "children": [
        34
      ],
      "name": "w_R_staart2_013",
      "rotation": [
        -0.0020146118476986885,
        -0.45395368337631226,
        0.0035052893217653036,
        0.8910161256790161
      ],
      "scale": [
        0.9999997615814209,
        0.9999998807907104,
        0.9999999403953552
      ],
      "translation": [
        -0.35996848344802856,
        -0.003650680184364319,
        -0.4571227431297302
      ]
    },
    {
      "children": [
        35
      ],
      "name": "w_R_staart3_014",
      "rotation": [
        -0.011272446252405643,
        0.1954309195280075,
        -0.055833399295806885,
        0.9790619611740112
      ],
      "translation": [
        -0.49794867634773254,
        -0.019402652978897095,
        0.008062869310379028
      ]
    },
    {
      "children": [
        36
      ],
      "name": "w_R_staart4_015",
      "rotation": [
        -9.386257104893048e-09,
        -0.49076399207115173,
        -4.275590548274977e-09,
        0.8712925314903259
      ],
      "translation": [
        -0.42464756965637207,
        -0.020128995180130005,
        0.006363504100590944
      ]
    },
    {
      "name": "w_R_staart4_end_027",
      "rotation": [
        -2.927345865710862e-17,
        9.107298248878237e-18,
        -1.3877787807814457e-17,
        1.0
      ],
      "translation": [
        -1.1102230246251565e-16,
        0.4147739112377167,
        8.881784197001252e-16
      ]
    },
    {
      "children": [
        38
      ],
      "name": "w_hoofd1_016",
      "rotation": [
        0.051883600652217865,
        0.9986532330513,
        3.4756062916585506e-08,
        5.548857302528631e-07
      ],
      "scale": [
        0.9999998807907104,
        0.9999998807907104,
        1.0
      ],
      "translation": [
        -0.8103263974189758,
        -0.2049790769815445,
        -4.4169962620799197e-07
      ]
    },
    {
      "children": [
        39
      ],
      "name": "w_hoofd2_017",
      "rotation": [
        0.05194263905286789,
        0.998650074005127,
        4.5141643312263113e-08,
        -5.507337164090131e-07
      ],
      "translation": [
        1.9254506826400757,
        0.4006655514240265,
        -7.478604970856395e-07
      ]
    },
    {
      "name": "w_hoofd2_end_028",
      "rotation": [
        3.308722450212111e-24,
        7.940933880509066e-23,
        1.404112309836433e-18,
        1.0
      ],
      "translation": [
        2.220446049250313e-16,
        1.5638076066970825,
        0.0
      ]
    },
    {
      "children": [
        41
      ],
      "name": "w_L_vin1_018",
      "rotation": [
        -0.02701171301305294,
        0.012905393727123737,
        0.9859305620193481,
        -0.16445347666740417
      ],
      "scale": [
        1.0000113248825073,
        1.0000015497207642,
        1.0
      ],
      "translation": [
        -0.44028323888778687,
        -0.34474167227745056,
        1.013084053993225
      ]
    },
    {
      "children": [
        42
      ],
      "name": "w_L_vin2_019",
      "rotation": [
        -0.10239920020103455,
        -0.7053576707839966,
        0.11299178749322891,
        0.6922556161880493
      ],
      "scale": [
        0.9999998807907104,
        1.0,
        0.9999998211860657
      ],
      "translation": [
        0.6931641101837158,
        0.5344031453132629,
        0.11597436666488647
      ]
    },
    {
      "children": [
        43
      ],
      "name": "w_L_vin3_020",
      "rotation": [
        0.021330451592803,
        0.15820440649986267,
        0.1499917060136795,
        0.9757145643234253
      ],
      "scale": [
        0.9999998807907104,
        0.9999999403953552,
        0.9999999403953552
      ],
      "translation": [
        0.5066922307014465,
        0.14582490921020508,
        0.23142115771770477
      ]
    },
    {
      "children": [
        44
      ],
      "name": "w_L_vin4_021",
      "rotation": [
        -0.012603591196238995,
        0.5255784392356873,
        -0.02039298042654991,
        0.8504073023796082
      ],
      "scale": [
        0.9999999403953552,
        1.0,
        1.0
      ],
      "translation": [
        0.3134978711605072,
        0.06426310539245605,
        0.8093894720077515
      ]
    },
    {
      "name": "w_L_vin4_end_029",
      "rotation": [
        4.333342374871281e-34,
        -1.3877787807814457e-17,
        3.122502256758253e-17,
        1.0
      ],
      "translation": [
        0.0,
        0.6665862202644348,
        0.0
      ]
    },
    {
      "children": [
        46
      ],
      "name": "w_R_vin1_022",
      "rotation": [
        0.6629016995429993,
        -0.2096763551235199,
        0.7086346745491028,
        -0.12014254182577133
      ],
      "scale": [
        1.000009298324585,
        1.0000016689300537,
        0.9999999403953552
      ],
      "translation": [
        -0.5521749258041382,
        -0.6342875957489014,
        -0.8733857870101929
      ]
    },
    {
      "children": [
        47
      ],
      "name": "w_R_vin2_023",
      "rotation": [
        -0.008598166517913342,
        0.001181289553642273,
        0.15799108147621155,
        0.9874023795127869
      ],
      "translation": [
        -0.24274130165576935,
        0.29294487833976746,
        -0.6396840214729309
      ]
    },
    {
      "children": [
        48
      ],
      "name": "w_R_vin3_024",
      "rotation": [
        0.01582334004342556,
        0.1574447900056839,
        0.14772513508796692,
        0.9762879014015198
      ],
      "scale": [
        0.9999999403953552,
        0.9999997615814209,
        1.0
      ],
      "translation": [
        -0.48188909888267517,
        0.1578511893749237,
        0.21310874819755554
      ]
    },
    {
      "children": [
        49
      ],
      "name": "w_R_vin4_025",
      "rotation": [
        -0.010361293330788612,
        0.525627851486206,
        -0.01676483452320099,
        0.8504862785339355
      ],
      "scale": [
        0.9999999403953552,
        1.0,
        0.9999998807907104
      ],
      "translation": [
        -0.9672496318817139,
        -0.00017027556896209717,
        0.17242339253425598
      ]
    },
    {
      "name": "w_R_vin4_end_00",
      "rotation": [
        2.7755575615628914e-17,
        1.3010426069826053e-18,
        -2.6020852139652106e-18,
        1.0
      ],
      "translation": [
        0.0,
        0.6251522302627563,
        0.0
      ]
    }
  ],
  "samplers": [
    {
      "magFilter": 9729,
      "minFilter": 9987,
      "wrapS": 10497,
      "wrapT": 10497
    }
  ],
  "scene": 0,
  "scenes": [
    {
      "name": "Sketchfab_Scene",
      "nodes": [
        0
      ]
    }
  ],
  "skins": [
    {
      "inverseBindMatrices": 44,
      "joints": [
        7,
        20,
        21,
        22,
        23,
        24,
        25,
        26,
        27,
        28,
        29,
        30,
        31,
        32,
        33,
        34,
        35,
        36,
        37,
        38,
        39,
        40,
        41,
        42,
        43,
        44,
        45,
        46,
        47,
        48,
        49
      ],
      "skeleton": 7
    }
  ],
  "textures": [
    {
      "sampler": 0,
      "source": 0
    },
    {
      "sampler": 0,
      "source": 1
    },
    {
      "sampler": 0,
      "source": 2
    }
  ]
}
